<svg width="32" height="32" viewBox="0 0 32 32" fill="none" xmlns="http://www.w3.org/2000/svg">
<path d="M30.08 21.7334L19.8533 4.77337C19.4398 4.12646 18.87 3.59407 18.1966 3.22529C17.5232 2.85651 16.7678 2.66321 16 2.66321C15.2322 2.66321 14.4768 2.85651 13.8033 3.22529C13.1299 3.59407 12.5602 4.12646 12.1466 4.77337L1.91997 21.7334C1.55871 22.3356 1.36236 23.0223 1.35065 23.7244C1.33895 24.4266 1.51231 25.1195 1.8533 25.7334C2.24754 26.4244 2.81818 26.9984 3.50691 27.3966C4.19563 27.7948 4.97774 28.0031 5.7733 28H26.2266C27.017 28.0085 27.7956 27.8083 28.4838 27.4197C29.1721 27.0311 29.7456 26.4678 30.1466 25.7867C30.4976 25.1664 30.6765 24.4636 30.6648 23.751C30.6531 23.0383 30.4512 22.3418 30.08 21.7334ZM27.8133 24.4667C27.6531 24.7422 27.4205 24.9685 27.1408 25.1213C26.8612 25.2741 26.545 25.3474 26.2266 25.3334H5.7733C5.45493 25.3474 5.13879 25.2741 4.85912 25.1213C4.57944 24.9685 4.34688 24.7422 4.18664 24.4667C4.06961 24.264 4.008 24.0341 4.008 23.8C4.008 23.566 4.06961 23.3361 4.18664 23.1334L14.4266 6.16004C14.6106 5.91698 14.8485 5.71986 15.1214 5.58414C15.3944 5.44842 15.6951 5.37778 16 5.37778C16.3048 5.37778 16.6055 5.44842 16.8785 5.58414C17.1515 5.71986 17.3893 5.91698 17.5733 6.16004L27.8 23.12C27.9215 23.3231 27.9868 23.5549 27.9892 23.7916C27.9915 24.0282 27.9308 24.2613 27.8133 24.4667Z" fill="#5C755E"/>
<path d="M15.9998 22.6667C16.7362 22.6667 17.3332 22.0697 17.3332 21.3333C17.3332 20.597 16.7362 20 15.9998 20C15.2635 20 14.6665 20.597 14.6665 21.3333C14.6665 22.0697 15.2635 22.6667 15.9998 22.6667Z" fill="#5C755E"/>
<path d="M15.9998 10.6666C15.6462 10.6666 15.3071 10.8071 15.057 11.0572C14.807 11.3072 14.6665 11.6463 14.6665 12V17.3333C14.6665 17.6869 14.807 18.0261 15.057 18.2761C15.3071 18.5262 15.6462 18.6666 15.9998 18.6666C16.3535 18.6666 16.6926 18.5262 16.9426 18.2761C17.1927 18.0261 17.3332 17.6869 17.3332 17.3333V12C17.3332 11.6463 17.1927 11.3072 16.9426 11.0572C16.6926 10.8071 16.3535 10.6666 15.9998 10.6666Z" fill="#5C755E"/>
</svg>
