<svg width="835" height="148" viewBox="0 0 835 148" fill="none" xmlns="http://www.w3.org/2000/svg">
<path d="M829 148L823.226 138H834.773L829 148ZM21 73H809V75H21V73ZM830 94V139H828V94H830ZM0 54L0 0L2 0L2 54H0ZM809 73C820.598 73 830 82.402 830 94H828C828 83.5066 819.493 75 809 75V73ZM21 75C9.40202 75 0 65.598 0 54H2C2 64.4934 10.5066 73 21 73V75Z" fill="#E2E2E2"/>
<g filter="url(#filter0_d_161_183)">
<circle cx="12" cy="12" r="12" transform="matrix(-1 0 0 1 357 63)" fill="#5C755E"/>
<circle cx="12" cy="12" r="10" transform="matrix(-1 0 0 1 357 63)" stroke="white" stroke-width="4"/>
</g>
<defs>
<filter id="filter0_d_161_183" x="329" y="63" width="32" height="32" filterUnits="userSpaceOnUse" color-interpolation-filters="sRGB">
<feFlood flood-opacity="0" result="BackgroundImageFix"/>
<feColorMatrix in="SourceAlpha" type="matrix" values="0 0 0 0 0 0 0 0 0 0 0 0 0 0 0 0 0 0 127 0" result="hardAlpha"/>
<feOffset dy="4"/>
<feGaussianBlur stdDeviation="2"/>
<feComposite in2="hardAlpha" operator="out"/>
<feColorMatrix type="matrix" values="0 0 0 0 0 0 0 0 0 0 0 0 0 0 0 0 0 0 0.25 0"/>
<feBlend mode="normal" in2="BackgroundImageFix" result="effect1_dropShadow_161_183"/>
<feBlend mode="normal" in="SourceGraphic" in2="effect1_dropShadow_161_183" result="shape"/>
</filter>
</defs>
</svg>
