<svg width="42" height="42" viewBox="0 0 42 42" fill="none" xmlns="http://www.w3.org/2000/svg">
<path d="M29.75 12.25H7C6.07174 12.25 5.1815 12.6187 4.52513 13.2751C3.86875 13.9315 3.5 14.8217 3.5 15.75V26.25C3.5 27.1783 3.86875 28.0685 4.52513 28.7249C5.1815 29.3813 6.07174 29.75 7 29.75H29.75C30.6783 29.75 31.5685 29.3813 32.2249 28.7249C32.8813 28.0685 33.25 27.1783 33.25 26.25V15.75C33.25 14.8217 32.8813 13.9315 32.2249 13.2751C31.5685 12.6187 30.6783 12.25 29.75 12.25ZM29.75 26.25H7V15.75H29.75V26.25ZM36.75 17.5C36.2859 17.5 35.8408 17.6844 35.5126 18.0126C35.1844 18.3408 35 18.7859 35 19.25V22.75C35 23.2141 35.1844 23.6592 35.5126 23.9874C35.8408 24.3156 36.2859 24.5 36.75 24.5C37.2141 24.5 37.6592 24.3156 37.9874 23.9874C38.3156 23.6592 38.5 23.2141 38.5 22.75V19.25C38.5 18.7859 38.3156 18.3408 37.9874 18.0126C37.6592 17.6844 37.2141 17.5 36.75 17.5Z" fill="#5C755E" stroke="white" stroke-width="0.8"/>
</svg>
