<svg width="36" height="36" viewBox="0 0 36 36" fill="none" xmlns="http://www.w3.org/2000/svg">
<path d="M29.1599 19.5C28.8299 19.5 28.4849 19.395 28.1549 19.32C27.4866 19.1728 26.8299 18.9773 26.1899 18.735C25.494 18.4819 24.7291 18.495 24.0424 18.772C23.3556 19.0489 22.7955 19.57 22.4699 20.235L22.1399 20.91C20.6789 20.0973 19.3364 19.0879 18.1499 17.91C16.9721 16.7236 15.9626 15.381 15.1499 13.92L15.7799 13.5C16.445 13.1744 16.9661 12.6143 17.243 11.9276C17.5199 11.2408 17.5331 10.4759 17.2799 9.78005C17.0417 9.13868 16.8463 8.48224 16.6949 7.81505C16.6199 7.48505 16.5599 7.14005 16.5149 6.79505C16.3328 5.73848 15.7793 4.78166 14.9543 4.09691C14.1293 3.41215 13.087 3.04446 12.0149 3.06005H7.51491C6.86845 3.05398 6.22828 3.18727 5.63797 3.45084C5.04766 3.71442 4.52107 4.10209 4.09405 4.58747C3.66703 5.07285 3.34961 5.64454 3.16339 6.26362C2.97717 6.8827 2.92653 7.53463 3.01491 8.17505C3.81401 14.4591 6.68395 20.2979 11.1714 24.769C15.6588 29.2401 21.508 32.0888 27.7949 32.865H28.3649C29.471 32.8667 30.539 32.4608 31.3649 31.725C31.8395 31.3006 32.2185 30.7803 32.4771 30.1985C32.7357 29.6167 32.8679 28.9867 32.8649 28.35V23.85C32.8465 22.8081 32.4671 21.8049 31.7914 21.0115C31.1157 20.2182 30.1856 19.684 29.1599 19.5ZM29.9099 28.5C29.9096 28.713 29.864 28.9235 29.7761 29.1175C29.6881 29.3115 29.5599 29.4845 29.3999 29.625C29.2323 29.7698 29.0363 29.8779 28.8245 29.9424C28.6127 30.007 28.3897 30.0266 28.1699 30C22.5523 29.2798 17.3343 26.7098 13.339 22.6955C9.3437 18.6812 6.79852 13.4511 6.10491 7.83005C6.08103 7.61032 6.10196 7.38804 6.16641 7.17663C6.23086 6.96522 6.33751 6.76908 6.47991 6.60005C6.62047 6.44004 6.7935 6.31181 6.98747 6.22387C7.18145 6.13594 7.39193 6.09032 7.60491 6.09005H12.1049C12.4537 6.08228 12.7943 6.19637 13.0681 6.41265C13.3419 6.62894 13.5317 6.9339 13.6049 7.27505C13.6649 7.68505 13.7399 8.09005 13.8299 8.49005C14.0032 9.28076 14.2338 10.0578 14.5199 10.815L12.4199 11.79C12.2404 11.8724 12.0788 11.9895 11.9446 12.1344C11.8104 12.2794 11.7062 12.4495 11.6379 12.6348C11.5696 12.8202 11.5386 13.0172 11.5467 13.2146C11.5547 13.412 11.6017 13.6059 11.6849 13.785C13.8437 18.4092 17.5608 22.1262 22.1849 24.285C22.5501 24.4351 22.9597 24.4351 23.3249 24.285C23.512 24.2181 23.6839 24.1147 23.8307 23.9808C23.9774 23.8469 24.0962 23.6852 24.1799 23.505L25.1099 21.405C25.8854 21.6824 26.6768 21.9128 27.4799 22.095C27.8799 22.185 28.2849 22.26 28.6949 22.32C29.0361 22.3932 29.341 22.583 29.5573 22.8568C29.7736 23.1306 29.8877 23.4712 29.8799 23.82L29.9099 28.5Z" fill="#5C755E"/>
</svg>
