<svg width="40" height="40" viewBox="0 0 40 40" fill="none" xmlns="http://www.w3.org/2000/svg">
<path d="M30 29.375H25C24.5027 29.375 24.0258 29.1775 23.6742 28.8258C23.3225 28.4742 23.125 27.9973 23.125 27.5V24.375C23.125 23.8777 23.3225 23.4008 23.6742 23.0492C24.0258 22.6975 24.5027 22.5 25 22.5H30C30.4973 22.5 30.9742 22.6975 31.3258 23.0492C31.6775 23.4008 31.875 23.8777 31.875 24.375V27.5C31.875 27.9973 31.6775 28.4742 31.3258 28.8258C30.9742 29.1775 30.4973 29.375 30 29.375ZM25 23.75C24.8342 23.75 24.6753 23.8158 24.5581 23.9331C24.4408 24.0503 24.375 24.2092 24.375 24.375V27.5C24.375 27.6658 24.4408 27.8247 24.5581 27.9419C24.6753 28.0592 24.8342 28.125 25 28.125H30C30.1658 28.125 30.3247 28.0592 30.4419 27.9419C30.5592 27.8247 30.625 27.6658 30.625 27.5V24.375C30.625 24.2092 30.5592 24.0503 30.4419 23.9331C30.3247 23.8158 30.1658 23.75 30 23.75H25Z" fill="#5C755E" stroke="#5C755E" stroke-width="0.8"/>
<path d="M30 23.75H25C24.8342 23.75 24.6753 23.6842 24.5581 23.5669C24.4408 23.4497 24.375 23.2908 24.375 23.125V22.5C24.375 21.6712 24.7042 20.8763 25.2903 20.2903C25.8763 19.7042 26.6712 19.375 27.5 19.375C28.3288 19.375 29.1237 19.7042 29.7097 20.2903C30.2958 20.8763 30.625 21.6712 30.625 22.5V23.125C30.625 23.2908 30.5592 23.4497 30.4419 23.5669C30.3247 23.6842 30.1658 23.75 30 23.75ZM25.625 22.5H29.375C29.375 22.0027 29.1775 21.5258 28.8258 21.1742C28.4742 20.8225 27.9973 20.625 27.5 20.625C27.0027 20.625 26.5258 20.8225 26.1742 21.1742C25.8225 21.5258 25.625 22.0027 25.625 22.5ZM27.5 26.875C27.3342 26.875 27.1753 26.8092 27.0581 26.6919C26.9408 26.5747 26.875 26.4158 26.875 26.25V25.625C26.875 25.4592 26.9408 25.3003 27.0581 25.1831C27.1753 25.0658 27.3342 25 27.5 25C27.6658 25 27.8247 25.0658 27.9419 25.1831C28.0592 25.3003 28.125 25.4592 28.125 25.625V26.25C28.125 26.4158 28.0592 26.5747 27.9419 26.6919C27.8247 26.8092 27.6658 26.875 27.5 26.875ZM17.1875 12.5C10.5125 12.5 3.75 11 3.75 8.125C3.75 5.25 10.5125 3.75 17.1875 3.75C23.8625 3.75 30.625 5.25 30.625 8.125C30.625 11 23.8625 12.5 17.1875 12.5ZM17.1875 5C9.75 5 5 6.875 5 8.125C5 9.375 9.75 11.25 17.1875 11.25C24.625 11.25 29.375 9.375 29.375 8.125C29.375 6.875 24.625 5 17.1875 5Z" fill="#5C755E" stroke="#5C755E" stroke-width="0.8"/>
<path d="M27.4998 36.25C27.4185 36.251 27.3378 36.2361 27.2623 36.2062C25.2881 35.3979 23.5291 34.1413 22.1243 32.5359C20.7196 30.9305 19.7076 29.0202 19.1685 26.9562C18.9379 26.0748 18.7976 25.1723 18.7498 24.2625C18.7498 24.0375 18.7498 23.8312 18.7498 23.6375V17.625C18.7456 17.4822 18.7905 17.3423 18.8769 17.2286C18.9633 17.1149 19.0861 17.0342 19.2248 17L27.3498 15C27.4483 14.9756 27.5513 14.9756 27.6498 15L35.7748 17C35.9135 17.0342 36.0362 17.1149 36.1226 17.2286C36.2091 17.3423 36.2539 17.4822 36.2498 17.625V23.625C36.244 26.3303 35.4307 28.9723 33.9142 31.2126C32.3976 33.4529 30.2468 35.1895 27.7373 36.2C27.6621 36.232 27.5815 36.249 27.4998 36.25ZM19.9998 18.125V23.625C19.9998 23.8187 19.9998 24.0125 19.9998 24.2062C20.038 25.0293 20.1616 25.8462 20.3685 26.6437C20.5627 27.4006 20.8285 28.1372 21.1623 28.8437C21.9798 30.5606 23.1765 32.0694 24.6623 33.2562C25.5305 33.9416 26.4844 34.511 27.4998 34.95C29.7204 34.0026 31.6145 32.4248 32.9476 30.4118C34.2807 28.3989 34.9942 26.0393 34.9998 23.625V18.125L27.4998 16.25L19.9998 18.125Z" fill="#5C755E" stroke="#5C755E" stroke-width="0.8"/>
<path d="M17.1875 27.5C10.5125 27.5 3.75 26 3.75 23.125V15.625C3.75 15.4592 3.81585 15.3003 3.93306 15.1831C4.05027 15.0658 4.20924 15 4.375 15C4.54076 15 4.69973 15.0658 4.81694 15.1831C4.93415 15.3003 5 15.4592 5 15.625C5 16.875 9.75 18.75 17.1875 18.75C17.9208 18.75 18.6396 18.7312 19.3438 18.6937C19.4287 18.6899 19.5135 18.7035 19.593 18.7336C19.6726 18.7637 19.7451 18.8097 19.8062 18.8688C19.8672 18.9268 19.9158 18.9966 19.9491 19.074C19.9824 19.1513 19.9997 19.2346 20 19.3187V23.625C20 23.8187 20 24.0125 20 24.2062C20.0382 25.0293 20.1618 25.8462 20.3687 26.6438C20.3919 26.7332 20.395 26.8267 20.3777 26.9175C20.3604 27.0083 20.3232 27.0941 20.2687 27.1688C20.2144 27.2434 20.1442 27.3052 20.0631 27.3495C19.9821 27.3938 19.8922 27.4196 19.8 27.425C18.9688 27.5 18.0813 27.5 17.1875 27.5ZM5 17.5875V23.125C5 24.375 9.75 26.25 17.1875 26.25C17.8125 26.25 18.4375 26.25 19 26.2125C18.8698 25.5694 18.7862 24.9177 18.75 24.2625C18.75 24.0375 18.75 23.8313 18.75 23.6375V20C18.2375 20 17.7125 20 17.1875 20C12.2437 20 7.25625 19.175 5 17.5875Z" fill="#5C755E" stroke="#5C755E" stroke-width="0.8"/>
<path d="M17.1875 20C10.5125 20 3.75 18.5 3.75 15.625V8.125C3.75 7.95924 3.81585 7.80027 3.93306 7.68306C4.05027 7.56585 4.20924 7.5 4.375 7.5C4.54076 7.5 4.69973 7.56585 4.81694 7.68306C4.93415 7.80027 5 7.95924 5 8.125C5 9.375 9.75 11.25 17.1875 11.25C24.625 11.25 29.375 9.375 29.375 8.125C29.375 7.95924 29.4408 7.80027 29.5581 7.68306C29.6753 7.56585 29.8342 7.5 30 7.5C30.1658 7.5 30.3247 7.56585 30.4419 7.68306C30.5592 7.80027 30.625 7.95924 30.625 8.125V15.625C30.6245 15.9289 30.5471 16.2278 30.4 16.4937C30.3346 16.6162 30.2303 16.7133 30.1035 16.7699C29.9768 16.8265 29.8348 16.8393 29.7 16.8062L27.5 16.25L20 18.125V19.3313C20.0002 19.4917 19.9387 19.6461 19.8281 19.7625C19.7176 19.8789 19.5665 19.9482 19.4062 19.9563C18.6812 20 17.9375 20 17.1875 20ZM5 10.0875V15.625C5 16.875 9.75 18.75 17.1875 18.75C17.7125 18.75 18.2375 18.75 18.75 18.7188V17.625C18.7458 17.4822 18.7907 17.3423 18.8771 17.2286C18.9636 17.1149 19.0863 17.0342 19.225 17L27.35 15C27.4485 14.9756 27.5515 14.9756 27.65 15L29.375 15.4375V10.0875C27.1187 11.675 22.1313 12.5 17.1875 12.5C12.2437 12.5 7.25625 11.675 5 10.0875Z" fill="#5C755E" stroke="#5C755E" stroke-width="0.8"/>
<path d="M30 16.875C29.9502 16.881 29.8998 16.881 29.85 16.875L29.7 16.8375C29.6079 16.8145 29.5223 16.7707 29.4496 16.7097C29.3769 16.6486 29.3191 16.5718 29.2806 16.485C29.242 16.3983 29.2237 16.3039 29.2271 16.209C29.2305 16.1142 29.2554 16.0213 29.3 15.9375C29.3518 15.8417 29.3777 15.7339 29.375 15.625C29.375 15.4592 29.4408 15.3003 29.5581 15.1831C29.6753 15.0658 29.8342 15 30 15C30.1658 15 30.3247 15.0658 30.4419 15.1831C30.5592 15.3003 30.625 15.4592 30.625 15.625V16.25C30.625 16.4158 30.5592 16.5747 30.4419 16.6919C30.3247 16.8092 30.1658 16.875 30 16.875ZM17.1875 35C10.5125 35 3.75 33.5 3.75 30.625V23.125C3.75 22.9592 3.81585 22.8003 3.93306 22.6831C4.05027 22.5658 4.20924 22.5 4.375 22.5C4.54076 22.5 4.69973 22.5658 4.81694 22.6831C4.93415 22.8003 5 22.9592 5 23.125C5 24.375 9.75 26.25 17.1875 26.25C18.0562 26.25 18.9187 26.25 19.7375 26.175C19.8794 26.1705 20.0187 26.2145 20.1323 26.2997C20.2459 26.3849 20.3271 26.5062 20.3625 26.6438C20.5567 27.4006 20.8225 28.1373 21.1562 28.8438C21.9737 30.5606 23.1705 32.0694 24.6562 33.2562C24.7476 33.3295 24.8165 33.4269 24.8552 33.5374C24.8939 33.6479 24.9007 33.767 24.875 33.8812C24.8462 33.9968 24.7851 34.1017 24.6987 34.1836C24.6123 34.2655 24.5044 34.3211 24.3875 34.3438C22.0135 34.7889 19.6028 35.0086 17.1875 35ZM5 25.0875V30.625C5 31.875 9.75 33.75 17.1875 33.75C19.0968 33.7565 21.004 33.6228 22.8938 33.35C21.7146 32.2067 20.7513 30.8602 20.05 29.375C19.7543 28.7507 19.5057 28.1051 19.3062 27.4438C18.6187 27.4438 17.9062 27.4938 17.1875 27.4938C12.2437 27.5 7.25625 26.675 5 25.0875ZM20.625 8.75H13.75C13.5842 8.75 13.4253 8.68415 13.3081 8.56694C13.1908 8.44973 13.125 8.29076 13.125 8.125C13.125 7.95924 13.1908 7.80027 13.3081 7.68306C13.4253 7.56585 13.5842 7.5 13.75 7.5H20.625C20.7908 7.5 20.9497 7.56585 21.0669 7.68306C21.1842 7.80027 21.25 7.95924 21.25 8.125C21.25 8.29076 21.1842 8.44973 21.0669 8.56694C20.9497 8.68415 20.7908 8.75 20.625 8.75Z" fill="#5C755E" stroke="#5C755E" stroke-width="0.8"/>
</svg>
