<svg width="24" height="36" viewBox="0 0 24 36" fill="none" xmlns="http://www.w3.org/2000/svg">
<path fill-rule="evenodd" clip-rule="evenodd" d="M12.0001 0.25C7.31264 0.25 4.70847 1.5 4.70847 1.5V6.5L1.03274 10.1758C0.41514 10.7934 0.786598 11.83 1.65785 11.8922C3.75889 12.0421 7.31837 12.2292 12.0002 12.2292C14.2976 12.2292 16.3248 12.1842 18.042 12.1205L18.0245 12.1211C18.1716 12.6529 18.2502 13.2131 18.2502 13.7917C18.2502 17.2434 15.452 20.0417 12.0002 20.0417C8.54847 20.0417 5.75025 17.2434 5.75025 13.7917C5.75025 13.2131 5.82889 12.6529 5.97597 12.1211C5.20524 12.0927 4.4967 12.0605 3.8541 12.027C3.7315 12.5958 3.66691 13.1861 3.66691 13.7917C3.66691 18.3941 7.39785 22.125 12.0002 22.125C16.6026 22.125 20.3336 18.3941 20.3336 13.7917C20.3336 13.1861 20.269 12.5958 20.1464 12.027C20.9964 11.9826 21.7312 11.9358 22.3425 11.8922C23.2138 11.83 23.5852 10.7934 22.9676 10.1758L19.2918 6.5V1.5C19.2918 1.5 16.6876 0.25 12.0001 0.25ZM6.79181 7.36292L4.19629 9.95844C6.2067 10.0598 8.84347 10.1458 12.0002 10.1458C15.1569 10.1458 17.7937 10.0598 19.8041 9.95844L17.2085 7.36292V2.97821C17.1095 2.95078 17.0044 2.9229 16.8936 2.89487C15.8088 2.62082 14.1574 2.33333 12.0001 2.33333C9.84295 2.33333 8.1916 2.62082 7.10681 2.89487C6.99587 2.9229 6.89087 2.95078 6.79181 2.97821V7.36292Z" fill="white"/>
<path d="M13.0417 25.6052L18.25 27.1553V35.6667H13.0417V25.6052ZM10.9583 35.6667H5.75V27.1553L10.9583 25.6052V35.6667Z" fill="white"/>
</svg>
