<svg width="30" height="36" viewBox="0 0 30 36" fill="none" xmlns="http://www.w3.org/2000/svg">
<path d="M15.774 0.308213C15.3397 -0.102412 14.6603 -0.102412 14.226 0.308213C13.6613 0.844838 0.375 13.5258 0.375 21.375C0.375 29.439 6.936 36 15 36C23.064 36 29.625 29.439 29.625 21.375C29.625 13.5258 16.3387 0.844838 15.774 0.308213ZM26.0171 26.7671C25.7122 27.0708 25.3635 27.135 25.125 27.135C24.8865 27.135 24.5378 27.0708 24.2329 26.7671C22.9076 25.4418 20.5924 25.4418 19.2671 26.7671C18.9622 27.0708 18.6135 27.135 18.375 27.135C18.1365 27.135 17.7878 27.0708 17.4829 26.7671C16.1576 25.4418 13.8424 25.4418 12.5171 26.7671C12.2123 27.0708 11.8635 27.135 11.625 27.135C11.3865 27.135 11.0377 27.0708 10.7329 26.7671C9.40763 25.4418 7.09238 25.4418 5.76713 26.7671C5.27438 27.2598 4.47562 27.2598 3.98287 26.7671L3.7815 26.5657C3.04687 24.9851 2.625 23.2301 2.625 21.375C2.625 21.1657 2.65988 20.9418 2.6835 20.7213C4.0605 21.8295 6.07987 21.7608 7.35787 20.4828C7.66275 20.1791 8.0115 20.115 8.25 20.115C8.4885 20.115 8.83725 20.1791 9.14213 20.4828C10.4674 21.8081 12.7826 21.8081 14.1079 20.4828C14.4127 20.178 14.7615 20.115 15 20.115C15.2385 20.115 15.5872 20.1791 15.8921 20.4828C17.2174 21.8081 19.5326 21.8081 20.8579 20.4828C21.1628 20.178 21.5115 20.115 21.75 20.115C21.9885 20.115 22.3372 20.1791 22.6421 20.4828C23.3047 21.1455 24.1868 21.51 25.125 21.51C25.9361 21.51 26.6955 21.2231 27.3165 20.7225C27.3401 20.9418 27.375 21.1668 27.375 21.375C27.375 23.2301 26.9531 24.9851 26.2185 26.5657L26.0171 26.7671ZM15 2.69209C18.3525 6.00634 24.5816 12.9217 26.6651 18.2441L26.0171 18.8921C25.7122 19.1958 25.3635 19.26 25.125 19.26C24.8865 19.26 24.5378 19.1958 24.2329 18.8921C22.9076 17.5668 20.5924 17.5668 19.2671 18.8921C18.9622 19.1958 18.6135 19.26 18.375 19.26C18.1365 19.26 17.7878 19.1958 17.4829 18.8921C16.1576 17.5668 13.8424 17.5668 12.5171 18.8921C12.2123 19.1958 11.8635 19.26 11.625 19.26C11.3865 19.26 11.0377 19.1958 10.7329 18.8921C9.40763 17.5668 7.09238 17.5668 5.76713 18.8921C5.28788 19.3713 4.46212 19.3713 3.98287 18.8921L3.33488 18.2441C5.41838 12.9206 11.6475 6.00521 15 2.69209ZM15 33.75C11.2009 33.75 7.79887 32.0253 5.5275 29.322C6.19912 29.196 6.84037 28.8753 7.35787 28.3578C7.66275 28.0541 8.0115 27.99 8.25 27.99C8.4885 27.99 8.83725 28.0541 9.14213 28.3578C10.4674 29.6831 12.7826 29.6831 14.1079 28.3578C14.4127 28.053 14.7615 27.99 15 27.99C15.2385 27.99 15.5872 28.0541 15.8921 28.3578C17.2174 29.6831 19.5326 29.6831 20.8579 28.3578C21.1628 28.053 21.5115 27.99 21.75 27.99C21.9885 27.99 22.3372 28.0541 22.6421 28.3578C23.1484 28.8641 23.784 29.1926 24.4736 29.322C22.2011 32.0253 18.8002 33.75 15 33.75Z" fill="#5C755E"/>
</svg>
