<svg width="36" height="36" viewBox="0 0 36 36" fill="none" xmlns="http://www.w3.org/2000/svg">
<path d="M18 19.5C18.8284 19.5 19.5 18.8284 19.5 18C19.5 17.1716 18.8284 16.5 18 16.5C17.1716 16.5 16.5 17.1716 16.5 18C16.5 18.8284 17.1716 19.5 18 19.5Z" fill="#5C755E" stroke="white" stroke-width="0.5"/>
<path d="M24 19.5C24.8284 19.5 25.5 18.8284 25.5 18C25.5 17.1716 24.8284 16.5 24 16.5C23.1716 16.5 22.5 17.1716 22.5 18C22.5 18.8284 23.1716 19.5 24 19.5Z" fill="#5C755E" stroke="white" stroke-width="0.5"/>
<path d="M12 19.5C12.8284 19.5 13.5 18.8284 13.5 18C13.5 17.1716 12.8284 16.5 12 16.5C11.1716 16.5 10.5 17.1716 10.5 18C10.5 18.8284 11.1716 19.5 12 19.5Z" fill="#5C755E" stroke="white" stroke-width="0.5"/>
<path d="M28.6049 7.39479C26.1438 4.91754 22.8954 3.37661 19.4199 3.03765C15.9443 2.6987 12.4595 3.58296 9.56601 5.53799C6.67257 7.49302 4.55189 10.3963 3.56958 13.7473C2.58727 17.0983 2.8049 20.687 4.18493 23.8948C4.32877 24.1929 4.37596 24.5285 4.31993 24.8548L2.99993 31.1998C2.94908 31.4431 2.95946 31.6951 3.03015 31.9334C3.10085 32.1717 3.22963 32.3886 3.40493 32.5648C3.54864 32.7075 3.71974 32.8195 3.90793 32.8943C4.09612 32.9691 4.2975 33.0049 4.49993 32.9998H4.79993L11.2199 31.7098C11.5462 31.6706 11.8771 31.7171 12.1799 31.8448C15.3877 33.2248 18.9764 33.4425 22.3274 32.4601C25.6784 31.4778 28.5817 29.3572 30.5367 26.4637C32.4918 23.5703 33.376 20.0854 33.0371 16.6099C32.6981 13.1343 31.1572 9.88597 28.6799 7.42479L28.6049 7.39479ZM29.8499 19.9348C29.5567 21.7258 28.861 23.4269 27.8153 24.9101C26.7695 26.3934 25.401 27.6202 23.8127 28.4981C22.2243 29.376 20.4575 29.8822 18.6453 29.9786C16.833 30.0751 15.0225 29.7592 13.3499 29.0548C12.7567 28.8025 12.1195 28.6699 11.4749 28.6648C11.1934 28.6668 10.9124 28.6918 10.6349 28.7398L6.40493 29.5948L7.25993 25.3648C7.43022 24.4487 7.32045 23.5026 6.94493 22.6498C6.24052 20.9772 5.92464 19.1667 6.02107 17.3545C6.1175 15.5422 6.62373 13.7754 7.50165 12.1871C8.37957 10.5987 9.60632 9.23019 11.0896 8.18446C12.5728 7.13874 14.274 6.44306 16.0649 6.14979C17.9448 5.84126 19.8712 5.98475 21.6847 6.56838C23.4981 7.15201 25.1465 8.15901 26.4936 9.50609C27.8407 10.8532 28.8477 12.5016 29.4313 14.3151C30.015 16.1285 30.1585 18.0549 29.8499 19.9348Z" fill="#5C755E" stroke="white" stroke-width="0.5"/>
</svg>
