<svg width="565" height="317" viewBox="0 0 565 317" fill="none" xmlns="http://www.w3.org/2000/svg">
<g filter="url(#filter0_d_90_124)">
<g clip-path="url(#clip0_90_124)">
<rect x="50" y="46" width="465" height="217" rx="20" fill="white"/>
<circle opacity="0.04" cx="129" cy="84" r="115" fill="#606873"/>
<circle opacity="0.02" cx="129" cy="84" r="90" fill="#202326"/>
<path d="M85.6719 148.375V149.93H79.6328V148.375H85.6719ZM80.1172 143.625V155H78.1562V143.625H80.1172ZM87.1797 143.625V155H85.2266V143.625H87.1797ZM93.0547 155.156C92.4297 155.156 91.8646 155.055 91.3594 154.852C90.8594 154.643 90.4323 154.354 90.0781 153.984C89.7292 153.615 89.4609 153.18 89.2734 152.68C89.0859 152.18 88.9922 151.641 88.9922 151.062V150.75C88.9922 150.089 89.0885 149.49 89.2812 148.953C89.474 148.417 89.7422 147.958 90.0859 147.578C90.4297 147.193 90.8359 146.898 91.3047 146.695C91.7734 146.492 92.2812 146.391 92.8281 146.391C93.4323 146.391 93.9609 146.492 94.4141 146.695C94.8672 146.898 95.2422 147.185 95.5391 147.555C95.8411 147.919 96.0651 148.354 96.2109 148.859C96.362 149.365 96.4375 149.922 96.4375 150.531V151.336H89.9062V149.984H94.5781V149.836C94.5677 149.497 94.5 149.18 94.375 148.883C94.2552 148.586 94.0703 148.346 93.8203 148.164C93.5703 147.982 93.237 147.891 92.8203 147.891C92.5078 147.891 92.2292 147.958 91.9844 148.094C91.7448 148.224 91.5443 148.414 91.3828 148.664C91.2214 148.914 91.0964 149.216 91.0078 149.57C90.9245 149.919 90.8828 150.312 90.8828 150.75V151.062C90.8828 151.432 90.9323 151.776 91.0312 152.094C91.1354 152.406 91.2865 152.68 91.4844 152.914C91.6823 153.148 91.9219 153.333 92.2031 153.469C92.4844 153.599 92.8047 153.664 93.1641 153.664C93.6172 153.664 94.0208 153.573 94.375 153.391C94.7292 153.208 95.0365 152.951 95.2969 152.617L96.2891 153.578C96.1068 153.844 95.8698 154.099 95.5781 154.344C95.2865 154.583 94.9297 154.779 94.5078 154.93C94.0911 155.081 93.6068 155.156 93.0547 155.156ZM102.672 153.305V149.273C102.672 148.971 102.617 148.711 102.508 148.492C102.398 148.273 102.232 148.104 102.008 147.984C101.789 147.865 101.513 147.805 101.18 147.805C100.872 147.805 100.607 147.857 100.383 147.961C100.159 148.065 99.9844 148.206 99.8594 148.383C99.7344 148.56 99.6719 148.76 99.6719 148.984H97.7969C97.7969 148.651 97.8776 148.328 98.0391 148.016C98.2005 147.703 98.4349 147.424 98.7422 147.18C99.0495 146.935 99.4167 146.742 99.8438 146.602C100.271 146.461 100.75 146.391 101.281 146.391C101.917 146.391 102.479 146.497 102.969 146.711C103.464 146.924 103.852 147.247 104.133 147.68C104.419 148.107 104.562 148.643 104.562 149.289V153.047C104.562 153.432 104.589 153.779 104.641 154.086C104.698 154.388 104.779 154.651 104.883 154.875V155H102.953C102.865 154.797 102.794 154.539 102.742 154.227C102.695 153.909 102.672 153.602 102.672 153.305ZM102.945 149.859L102.961 151.023H101.609C101.26 151.023 100.953 151.057 100.688 151.125C100.422 151.188 100.201 151.281 100.023 151.406C99.8464 151.531 99.7135 151.682 99.625 151.859C99.5365 152.036 99.4922 152.237 99.4922 152.461C99.4922 152.685 99.5443 152.891 99.6484 153.078C99.7526 153.26 99.9036 153.404 100.102 153.508C100.305 153.612 100.549 153.664 100.836 153.664C101.221 153.664 101.557 153.586 101.844 153.43C102.135 153.268 102.365 153.073 102.531 152.844C102.698 152.609 102.786 152.388 102.797 152.18L103.406 153.016C103.344 153.229 103.237 153.458 103.086 153.703C102.935 153.948 102.737 154.182 102.492 154.406C102.253 154.625 101.964 154.805 101.625 154.945C101.292 155.086 100.906 155.156 100.469 155.156C99.9167 155.156 99.4245 155.047 98.9922 154.828C98.5599 154.604 98.2214 154.305 97.9766 153.93C97.7318 153.549 97.6094 153.12 97.6094 152.641C97.6094 152.193 97.6927 151.797 97.8594 151.453C98.0312 151.104 98.2812 150.812 98.6094 150.578C98.9427 150.344 99.349 150.167 99.8281 150.047C100.307 149.922 100.854 149.859 101.469 149.859H102.945ZM108.547 143V155H106.656V143H108.547ZM114.484 146.547V147.922H109.719V146.547H114.484ZM111.094 144.477H112.977V152.664C112.977 152.924 113.013 153.125 113.086 153.266C113.164 153.401 113.271 153.492 113.406 153.539C113.542 153.586 113.701 153.609 113.883 153.609C114.013 153.609 114.138 153.602 114.258 153.586C114.378 153.57 114.474 153.555 114.547 153.539L114.555 154.977C114.398 155.023 114.216 155.065 114.008 155.102C113.805 155.138 113.57 155.156 113.305 155.156C112.872 155.156 112.49 155.081 112.156 154.93C111.823 154.773 111.562 154.521 111.375 154.172C111.188 153.823 111.094 153.359 111.094 152.781V144.477ZM117.797 143V155H115.922V143H117.797ZM117.469 150.461L116.859 150.453C116.865 149.87 116.945 149.331 117.102 148.836C117.263 148.341 117.487 147.911 117.773 147.547C118.065 147.177 118.414 146.893 118.82 146.695C119.227 146.492 119.677 146.391 120.172 146.391C120.589 146.391 120.964 146.448 121.297 146.562C121.635 146.677 121.927 146.862 122.172 147.117C122.417 147.367 122.602 147.695 122.727 148.102C122.857 148.503 122.922 148.992 122.922 149.57V155H121.031V149.555C121.031 149.148 120.971 148.826 120.852 148.586C120.737 148.346 120.568 148.174 120.344 148.07C120.12 147.961 119.846 147.906 119.523 147.906C119.185 147.906 118.885 147.974 118.625 148.109C118.37 148.245 118.156 148.43 117.984 148.664C117.812 148.898 117.682 149.169 117.594 149.477C117.51 149.784 117.469 150.112 117.469 150.461Z" fill="#212121"/>
<path d="M80.9375 172.625V184H79.4297V172.625H80.9375ZM85.6172 184H84.1719V174.656C84.1719 174.047 84.2812 173.534 84.5 173.117C84.724 172.695 85.0443 172.378 85.4609 172.164C85.8776 171.945 86.3724 171.836 86.9453 171.836C87.112 171.836 87.2786 171.846 87.4453 171.867C87.6172 171.888 87.7839 171.919 87.9453 171.961L87.8672 173.141C87.7578 173.115 87.6328 173.096 87.4922 173.086C87.3568 173.076 87.2214 173.07 87.0859 173.07C86.7786 173.07 86.513 173.133 86.2891 173.258C86.0703 173.378 85.9036 173.555 85.7891 173.789C85.6745 174.023 85.6172 174.312 85.6172 174.656V184ZM87.4141 175.547V176.656H82.8359V175.547H87.4141ZM97.9766 182.555V178.203C97.9766 177.87 97.9089 177.581 97.7734 177.336C97.6432 177.086 97.4453 176.893 97.1797 176.758C96.9141 176.622 96.5859 176.555 96.1953 176.555C95.8307 176.555 95.5104 176.617 95.2344 176.742C94.9635 176.867 94.75 177.031 94.5938 177.234C94.4427 177.438 94.3672 177.656 94.3672 177.891H92.9219C92.9219 177.589 93 177.289 93.1562 176.992C93.3125 176.695 93.5365 176.427 93.8281 176.188C94.125 175.943 94.4792 175.75 94.8906 175.609C95.3073 175.464 95.7708 175.391 96.2812 175.391C96.8958 175.391 97.4375 175.495 97.9062 175.703C98.3802 175.911 98.75 176.227 99.0156 176.648C99.2865 177.065 99.4219 177.589 99.4219 178.219V182.156C99.4219 182.438 99.4453 182.737 99.4922 183.055C99.5443 183.372 99.6198 183.646 99.7188 183.875V184H98.2109C98.138 183.833 98.0807 183.612 98.0391 183.336C97.9974 183.055 97.9766 182.794 97.9766 182.555ZM98.2266 178.875L98.2422 179.891H96.7812C96.3698 179.891 96.0026 179.924 95.6797 179.992C95.3568 180.055 95.0859 180.151 94.8672 180.281C94.6484 180.411 94.4818 180.576 94.3672 180.773C94.2526 180.966 94.1953 181.193 94.1953 181.453C94.1953 181.719 94.2552 181.961 94.375 182.18C94.4948 182.398 94.6745 182.573 94.9141 182.703C95.1589 182.828 95.4583 182.891 95.8125 182.891C96.2552 182.891 96.6458 182.797 96.9844 182.609C97.3229 182.422 97.5911 182.193 97.7891 181.922C97.9922 181.651 98.1016 181.388 98.1172 181.133L98.7344 181.828C98.6979 182.047 98.599 182.289 98.4375 182.555C98.276 182.82 98.0599 183.076 97.7891 183.32C97.5234 183.56 97.2057 183.76 96.8359 183.922C96.4714 184.078 96.0599 184.156 95.6016 184.156C95.0286 184.156 94.526 184.044 94.0938 183.82C93.6667 183.596 93.3333 183.297 93.0938 182.922C92.8594 182.542 92.7422 182.117 92.7422 181.648C92.7422 181.195 92.8307 180.797 93.0078 180.453C93.1849 180.104 93.4401 179.815 93.7734 179.586C94.1068 179.352 94.5078 179.174 94.9766 179.055C95.4453 178.935 95.9688 178.875 96.5469 178.875H98.2266ZM103.266 175.547V184H101.812V175.547H103.266ZM101.703 173.305C101.703 173.07 101.773 172.872 101.914 172.711C102.06 172.549 102.273 172.469 102.555 172.469C102.831 172.469 103.042 172.549 103.188 172.711C103.339 172.872 103.414 173.07 103.414 173.305C103.414 173.529 103.339 173.721 103.188 173.883C103.042 174.039 102.831 174.117 102.555 174.117C102.273 174.117 102.06 174.039 101.914 173.883C101.773 173.721 101.703 173.529 101.703 173.305ZM107.031 176.875V184H105.586V175.547H106.992L107.031 176.875ZM109.672 175.5L109.664 176.844C109.544 176.818 109.43 176.802 109.32 176.797C109.216 176.786 109.096 176.781 108.961 176.781C108.628 176.781 108.333 176.833 108.078 176.938C107.823 177.042 107.607 177.188 107.43 177.375C107.253 177.562 107.112 177.786 107.008 178.047C106.909 178.302 106.844 178.583 106.812 178.891L106.406 179.125C106.406 178.615 106.456 178.135 106.555 177.688C106.659 177.24 106.818 176.844 107.031 176.5C107.245 176.151 107.516 175.88 107.844 175.688C108.177 175.49 108.573 175.391 109.031 175.391C109.135 175.391 109.255 175.404 109.391 175.43C109.526 175.451 109.62 175.474 109.672 175.5ZM120.297 187.25V177.172L120.422 175.547H121.75V187.25H120.297ZM114.617 179.867V179.703C114.617 179.057 114.693 178.471 114.844 177.945C114.995 177.414 115.216 176.958 115.508 176.578C115.799 176.198 116.151 175.906 116.562 175.703C116.979 175.495 117.453 175.391 117.984 175.391C118.516 175.391 118.982 175.484 119.383 175.672C119.789 175.854 120.133 176.122 120.414 176.477C120.701 176.826 120.927 177.247 121.094 177.742C121.26 178.237 121.375 178.797 121.438 179.422V180.141C121.38 180.76 121.268 181.318 121.102 181.812C120.935 182.307 120.708 182.729 120.422 183.078C120.141 183.427 119.794 183.695 119.383 183.883C118.977 184.065 118.505 184.156 117.969 184.156C117.448 184.156 116.979 184.049 116.562 183.836C116.151 183.622 115.799 183.323 115.508 182.938C115.221 182.552 115 182.099 114.844 181.578C114.693 181.052 114.617 180.482 114.617 179.867ZM116.07 179.703V179.867C116.07 180.289 116.115 180.688 116.203 181.062C116.292 181.432 116.427 181.76 116.609 182.047C116.797 182.333 117.031 182.56 117.312 182.727C117.599 182.888 117.938 182.969 118.328 182.969C118.807 182.969 119.206 182.865 119.523 182.656C119.846 182.448 120.104 182.174 120.297 181.836C120.49 181.492 120.638 181.125 120.742 180.734V178.852C120.685 178.565 120.594 178.286 120.469 178.016C120.349 177.745 120.193 177.503 120 177.289C119.807 177.07 119.573 176.898 119.297 176.773C119.026 176.643 118.708 176.578 118.344 176.578C117.948 176.578 117.607 176.661 117.32 176.828C117.034 176.995 116.797 177.224 116.609 177.516C116.427 177.802 116.292 178.133 116.203 178.508C116.115 178.883 116.07 179.281 116.07 179.703ZM129.242 182.047V175.547H130.695V184H129.312L129.242 182.047ZM129.516 180.266L130.117 180.25C130.117 180.812 130.057 181.333 129.938 181.812C129.823 182.286 129.635 182.698 129.375 183.047C129.115 183.396 128.773 183.669 128.352 183.867C127.93 184.06 127.417 184.156 126.812 184.156C126.401 184.156 126.023 184.096 125.68 183.977C125.341 183.857 125.049 183.672 124.805 183.422C124.56 183.172 124.37 182.846 124.234 182.445C124.104 182.044 124.039 181.562 124.039 181V175.547H125.484V181.016C125.484 181.396 125.526 181.711 125.609 181.961C125.698 182.206 125.815 182.401 125.961 182.547C126.112 182.688 126.279 182.786 126.461 182.844C126.648 182.901 126.841 182.93 127.039 182.93C127.654 182.93 128.141 182.812 128.5 182.578C128.859 182.339 129.117 182.018 129.273 181.617C129.435 181.211 129.516 180.76 129.516 180.266ZM137.883 182.555V178.203C137.883 177.87 137.815 177.581 137.68 177.336C137.549 177.086 137.352 176.893 137.086 176.758C136.82 176.622 136.492 176.555 136.102 176.555C135.737 176.555 135.417 176.617 135.141 176.742C134.87 176.867 134.656 177.031 134.5 177.234C134.349 177.438 134.273 177.656 134.273 177.891H132.828C132.828 177.589 132.906 177.289 133.062 176.992C133.219 176.695 133.443 176.427 133.734 176.188C134.031 175.943 134.385 175.75 134.797 175.609C135.214 175.464 135.677 175.391 136.188 175.391C136.802 175.391 137.344 175.495 137.812 175.703C138.286 175.911 138.656 176.227 138.922 176.648C139.193 177.065 139.328 177.589 139.328 178.219V182.156C139.328 182.438 139.352 182.737 139.398 183.055C139.451 183.372 139.526 183.646 139.625 183.875V184H138.117C138.044 183.833 137.987 183.612 137.945 183.336C137.904 183.055 137.883 182.794 137.883 182.555ZM138.133 178.875L138.148 179.891H136.688C136.276 179.891 135.909 179.924 135.586 179.992C135.263 180.055 134.992 180.151 134.773 180.281C134.555 180.411 134.388 180.576 134.273 180.773C134.159 180.966 134.102 181.193 134.102 181.453C134.102 181.719 134.161 181.961 134.281 182.18C134.401 182.398 134.581 182.573 134.82 182.703C135.065 182.828 135.365 182.891 135.719 182.891C136.161 182.891 136.552 182.797 136.891 182.609C137.229 182.422 137.497 182.193 137.695 181.922C137.898 181.651 138.008 181.388 138.023 181.133L138.641 181.828C138.604 182.047 138.505 182.289 138.344 182.555C138.182 182.82 137.966 183.076 137.695 183.32C137.43 183.56 137.112 183.76 136.742 183.922C136.378 184.078 135.966 184.156 135.508 184.156C134.935 184.156 134.432 184.044 134 183.82C133.573 183.596 133.24 183.297 133 182.922C132.766 182.542 132.648 182.117 132.648 181.648C132.648 181.195 132.737 180.797 132.914 180.453C133.091 180.104 133.346 179.815 133.68 179.586C134.013 179.352 134.414 179.174 134.883 179.055C135.352 178.935 135.875 178.875 136.453 178.875H138.133ZM143.172 172V184H141.719V172H143.172ZM147.062 175.547V184H145.609V175.547H147.062ZM145.5 173.305C145.5 173.07 145.57 172.872 145.711 172.711C145.857 172.549 146.07 172.469 146.352 172.469C146.628 172.469 146.839 172.549 146.984 172.711C147.135 172.872 147.211 173.07 147.211 173.305C147.211 173.529 147.135 173.721 146.984 173.883C146.839 174.039 146.628 174.117 146.352 174.117C146.07 174.117 145.857 174.039 145.711 173.883C145.57 173.721 145.5 173.529 145.5 173.305ZM152.922 175.547V176.656H148.352V175.547H152.922ZM149.898 173.492H151.344V181.906C151.344 182.193 151.388 182.409 151.477 182.555C151.565 182.701 151.68 182.797 151.82 182.844C151.961 182.891 152.112 182.914 152.273 182.914C152.393 182.914 152.518 182.904 152.648 182.883C152.784 182.857 152.885 182.836 152.953 182.82L152.961 184C152.846 184.036 152.695 184.07 152.508 184.102C152.326 184.138 152.104 184.156 151.844 184.156C151.49 184.156 151.164 184.086 150.867 183.945C150.57 183.805 150.333 183.57 150.156 183.242C149.984 182.909 149.898 182.461 149.898 181.898V173.492ZM156.992 183.125L159.344 175.547H160.891L157.5 185.305C157.422 185.513 157.318 185.737 157.188 185.977C157.062 186.221 156.901 186.453 156.703 186.672C156.505 186.891 156.266 187.068 155.984 187.203C155.708 187.344 155.378 187.414 154.992 187.414C154.878 187.414 154.732 187.398 154.555 187.367C154.378 187.336 154.253 187.31 154.18 187.289L154.172 186.117C154.214 186.122 154.279 186.128 154.367 186.133C154.461 186.143 154.526 186.148 154.562 186.148C154.891 186.148 155.169 186.104 155.398 186.016C155.628 185.932 155.82 185.789 155.977 185.586C156.138 185.388 156.276 185.115 156.391 184.766L156.992 183.125ZM155.266 175.547L157.461 182.109L157.836 183.633L156.797 184.164L153.688 175.547H155.266ZM171.492 182.359V172H172.945V184H171.617L171.492 182.359ZM165.805 179.867V179.703C165.805 179.057 165.883 178.471 166.039 177.945C166.201 177.414 166.427 176.958 166.719 176.578C167.016 176.198 167.367 175.906 167.773 175.703C168.185 175.495 168.643 175.391 169.148 175.391C169.68 175.391 170.143 175.484 170.539 175.672C170.94 175.854 171.279 176.122 171.555 176.477C171.836 176.826 172.057 177.247 172.219 177.742C172.38 178.237 172.492 178.797 172.555 179.422V180.141C172.497 180.76 172.385 181.318 172.219 181.812C172.057 182.307 171.836 182.729 171.555 183.078C171.279 183.427 170.94 183.695 170.539 183.883C170.138 184.065 169.669 184.156 169.133 184.156C168.638 184.156 168.185 184.049 167.773 183.836C167.367 183.622 167.016 183.323 166.719 182.938C166.427 182.552 166.201 182.099 166.039 181.578C165.883 181.052 165.805 180.482 165.805 179.867ZM167.258 179.703V179.867C167.258 180.289 167.299 180.685 167.383 181.055C167.471 181.424 167.607 181.75 167.789 182.031C167.971 182.312 168.203 182.534 168.484 182.695C168.766 182.852 169.102 182.93 169.492 182.93C169.971 182.93 170.365 182.828 170.672 182.625C170.984 182.422 171.234 182.154 171.422 181.82C171.609 181.487 171.755 181.125 171.859 180.734V178.852C171.797 178.565 171.706 178.289 171.586 178.023C171.471 177.753 171.32 177.513 171.133 177.305C170.951 177.091 170.724 176.922 170.453 176.797C170.188 176.672 169.872 176.609 169.508 176.609C169.112 176.609 168.771 176.693 168.484 176.859C168.203 177.021 167.971 177.245 167.789 177.531C167.607 177.812 167.471 178.141 167.383 178.516C167.299 178.885 167.258 179.281 167.258 179.703ZM176.641 176.875V184H175.195V175.547H176.602L176.641 176.875ZM179.281 175.5L179.273 176.844C179.154 176.818 179.039 176.802 178.93 176.797C178.826 176.786 178.706 176.781 178.57 176.781C178.237 176.781 177.943 176.833 177.688 176.938C177.432 177.042 177.216 177.188 177.039 177.375C176.862 177.562 176.721 177.786 176.617 178.047C176.518 178.302 176.453 178.583 176.422 178.891L176.016 179.125C176.016 178.615 176.065 178.135 176.164 177.688C176.268 177.24 176.427 176.844 176.641 176.5C176.854 176.151 177.125 175.88 177.453 175.688C177.786 175.49 178.182 175.391 178.641 175.391C178.745 175.391 178.865 175.404 179 175.43C179.135 175.451 179.229 175.474 179.281 175.5ZM180.078 179.867V179.688C180.078 179.078 180.167 178.513 180.344 177.992C180.521 177.466 180.776 177.01 181.109 176.625C181.443 176.234 181.846 175.932 182.32 175.719C182.794 175.5 183.326 175.391 183.914 175.391C184.508 175.391 185.042 175.5 185.516 175.719C185.995 175.932 186.401 176.234 186.734 176.625C187.073 177.01 187.331 177.466 187.508 177.992C187.685 178.513 187.773 179.078 187.773 179.688V179.867C187.773 180.477 187.685 181.042 187.508 181.562C187.331 182.083 187.073 182.539 186.734 182.93C186.401 183.315 185.997 183.617 185.523 183.836C185.055 184.049 184.523 184.156 183.93 184.156C183.336 184.156 182.802 184.049 182.328 183.836C181.854 183.617 181.448 183.315 181.109 182.93C180.776 182.539 180.521 182.083 180.344 181.562C180.167 181.042 180.078 180.477 180.078 179.867ZM181.523 179.688V179.867C181.523 180.289 181.573 180.688 181.672 181.062C181.771 181.432 181.919 181.76 182.117 182.047C182.32 182.333 182.573 182.56 182.875 182.727C183.177 182.888 183.529 182.969 183.93 182.969C184.326 182.969 184.672 182.888 184.969 182.727C185.271 182.56 185.521 182.333 185.719 182.047C185.917 181.76 186.065 181.432 186.164 181.062C186.268 180.688 186.32 180.289 186.32 179.867V179.688C186.32 179.271 186.268 178.878 186.164 178.508C186.065 178.133 185.914 177.802 185.711 177.516C185.513 177.224 185.263 176.995 184.961 176.828C184.664 176.661 184.315 176.578 183.914 176.578C183.518 176.578 183.169 176.661 182.867 176.828C182.57 176.995 182.32 177.224 182.117 177.516C181.919 177.802 181.771 178.133 181.672 178.508C181.573 178.878 181.523 179.271 181.523 179.688ZM191.031 177.172V187.25H189.578V175.547H190.906L191.031 177.172ZM196.727 179.703V179.867C196.727 180.482 196.654 181.052 196.508 181.578C196.362 182.099 196.148 182.552 195.867 182.938C195.591 183.323 195.25 183.622 194.844 183.836C194.438 184.049 193.971 184.156 193.445 184.156C192.909 184.156 192.435 184.068 192.023 183.891C191.612 183.714 191.263 183.456 190.977 183.117C190.69 182.779 190.461 182.372 190.289 181.898C190.122 181.424 190.008 180.891 189.945 180.297V179.422C190.008 178.797 190.125 178.237 190.297 177.742C190.469 177.247 190.695 176.826 190.977 176.477C191.263 176.122 191.609 175.854 192.016 175.672C192.422 175.484 192.891 175.391 193.422 175.391C193.953 175.391 194.424 175.495 194.836 175.703C195.247 175.906 195.594 176.198 195.875 176.578C196.156 176.958 196.367 177.414 196.508 177.945C196.654 178.471 196.727 179.057 196.727 179.703ZM195.273 179.867V179.703C195.273 179.281 195.229 178.885 195.141 178.516C195.052 178.141 194.914 177.812 194.727 177.531C194.544 177.245 194.31 177.021 194.023 176.859C193.737 176.693 193.396 176.609 193 176.609C192.635 176.609 192.318 176.672 192.047 176.797C191.781 176.922 191.555 177.091 191.367 177.305C191.18 177.513 191.026 177.753 190.906 178.023C190.792 178.289 190.706 178.565 190.648 178.852V180.875C190.753 181.24 190.898 181.583 191.086 181.906C191.273 182.224 191.523 182.482 191.836 182.68C192.148 182.872 192.542 182.969 193.016 182.969C193.406 182.969 193.742 182.888 194.023 182.727C194.31 182.56 194.544 182.333 194.727 182.047C194.914 181.76 195.052 181.432 195.141 181.062C195.229 180.688 195.273 180.289 195.273 179.867ZM203.492 181.758C203.492 181.549 203.445 181.357 203.352 181.18C203.263 180.997 203.078 180.833 202.797 180.688C202.521 180.536 202.104 180.406 201.547 180.297C201.078 180.198 200.654 180.081 200.273 179.945C199.898 179.81 199.578 179.646 199.312 179.453C199.052 179.26 198.852 179.034 198.711 178.773C198.57 178.513 198.5 178.208 198.5 177.859C198.5 177.526 198.573 177.211 198.719 176.914C198.87 176.617 199.081 176.354 199.352 176.125C199.628 175.896 199.958 175.716 200.344 175.586C200.729 175.456 201.159 175.391 201.633 175.391C202.31 175.391 202.888 175.51 203.367 175.75C203.846 175.99 204.214 176.31 204.469 176.711C204.724 177.107 204.852 177.547 204.852 178.031H203.406C203.406 177.797 203.336 177.57 203.195 177.352C203.06 177.128 202.859 176.943 202.594 176.797C202.333 176.651 202.013 176.578 201.633 176.578C201.232 176.578 200.906 176.641 200.656 176.766C200.411 176.885 200.232 177.039 200.117 177.227C200.008 177.414 199.953 177.612 199.953 177.82C199.953 177.977 199.979 178.117 200.031 178.242C200.089 178.362 200.188 178.474 200.328 178.578C200.469 178.677 200.667 178.771 200.922 178.859C201.177 178.948 201.503 179.036 201.898 179.125C202.591 179.281 203.161 179.469 203.609 179.688C204.057 179.906 204.391 180.174 204.609 180.492C204.828 180.81 204.938 181.195 204.938 181.648C204.938 182.018 204.859 182.357 204.703 182.664C204.552 182.971 204.331 183.237 204.039 183.461C203.753 183.68 203.409 183.852 203.008 183.977C202.612 184.096 202.167 184.156 201.672 184.156C200.927 184.156 200.297 184.023 199.781 183.758C199.266 183.492 198.875 183.148 198.609 182.727C198.344 182.305 198.211 181.859 198.211 181.391H199.664C199.685 181.786 199.799 182.102 200.008 182.336C200.216 182.565 200.471 182.729 200.773 182.828C201.076 182.922 201.375 182.969 201.672 182.969C202.068 182.969 202.398 182.917 202.664 182.812C202.935 182.708 203.141 182.565 203.281 182.383C203.422 182.201 203.492 181.992 203.492 181.758ZM208.148 182.281V183.445C208.148 183.919 208.029 184.419 207.789 184.945C207.549 185.477 207.214 185.919 206.781 186.273L205.961 185.703C206.128 185.474 206.268 185.24 206.383 185C206.497 184.766 206.583 184.521 206.641 184.266C206.703 184.016 206.734 183.75 206.734 183.469V182.281H208.148ZM217.5 175.547V176.656H212.93V175.547H217.5ZM214.477 173.492H215.922V181.906C215.922 182.193 215.966 182.409 216.055 182.555C216.143 182.701 216.258 182.797 216.398 182.844C216.539 182.891 216.69 182.914 216.852 182.914C216.971 182.914 217.096 182.904 217.227 182.883C217.362 182.857 217.464 182.836 217.531 182.82L217.539 184C217.424 184.036 217.273 184.07 217.086 184.102C216.904 184.138 216.682 184.156 216.422 184.156C216.068 184.156 215.742 184.086 215.445 183.945C215.148 183.805 214.911 183.57 214.734 183.242C214.562 182.909 214.477 182.461 214.477 181.898V173.492ZM224.367 182.047V175.547H225.82V184H224.438L224.367 182.047ZM224.641 180.266L225.242 180.25C225.242 180.812 225.182 181.333 225.062 181.812C224.948 182.286 224.76 182.698 224.5 183.047C224.24 183.396 223.898 183.669 223.477 183.867C223.055 184.06 222.542 184.156 221.938 184.156C221.526 184.156 221.148 184.096 220.805 183.977C220.466 183.857 220.174 183.672 219.93 183.422C219.685 183.172 219.495 182.846 219.359 182.445C219.229 182.044 219.164 181.562 219.164 181V175.547H220.609V181.016C220.609 181.396 220.651 181.711 220.734 181.961C220.823 182.206 220.94 182.401 221.086 182.547C221.237 182.688 221.404 182.786 221.586 182.844C221.773 182.901 221.966 182.93 222.164 182.93C222.779 182.93 223.266 182.812 223.625 182.578C223.984 182.339 224.242 182.018 224.398 181.617C224.56 181.211 224.641 180.76 224.641 180.266ZM229.469 176.875V184H228.023V175.547H229.43L229.469 176.875ZM232.109 175.5L232.102 176.844C231.982 176.818 231.867 176.802 231.758 176.797C231.654 176.786 231.534 176.781 231.398 176.781C231.065 176.781 230.771 176.833 230.516 176.938C230.26 177.042 230.044 177.188 229.867 177.375C229.69 177.562 229.549 177.786 229.445 178.047C229.346 178.302 229.281 178.583 229.25 178.891L228.844 179.125C228.844 178.615 228.893 178.135 228.992 177.688C229.096 177.24 229.255 176.844 229.469 176.5C229.682 176.151 229.953 175.88 230.281 175.688C230.615 175.49 231.01 175.391 231.469 175.391C231.573 175.391 231.693 175.404 231.828 175.43C231.964 175.451 232.057 175.474 232.109 175.5ZM234.891 177.352V184H233.445V175.547H234.812L234.891 177.352ZM234.547 179.453L233.945 179.43C233.951 178.852 234.036 178.318 234.203 177.828C234.37 177.333 234.604 176.904 234.906 176.539C235.208 176.174 235.568 175.893 235.984 175.695C236.406 175.492 236.872 175.391 237.383 175.391C237.799 175.391 238.174 175.448 238.508 175.562C238.841 175.672 239.125 175.849 239.359 176.094C239.599 176.339 239.781 176.656 239.906 177.047C240.031 177.432 240.094 177.904 240.094 178.461V184H238.641V178.445C238.641 178.003 238.576 177.648 238.445 177.383C238.315 177.112 238.125 176.917 237.875 176.797C237.625 176.672 237.318 176.609 236.953 176.609C236.594 176.609 236.266 176.685 235.969 176.836C235.677 176.987 235.424 177.195 235.211 177.461C235.003 177.727 234.839 178.031 234.719 178.375C234.604 178.714 234.547 179.073 234.547 179.453ZM245.875 179.867V179.688C245.875 179.078 245.964 178.513 246.141 177.992C246.318 177.466 246.573 177.01 246.906 176.625C247.24 176.234 247.643 175.932 248.117 175.719C248.591 175.5 249.122 175.391 249.711 175.391C250.305 175.391 250.839 175.5 251.312 175.719C251.792 175.932 252.198 176.234 252.531 176.625C252.87 177.01 253.128 177.466 253.305 177.992C253.482 178.513 253.57 179.078 253.57 179.688V179.867C253.57 180.477 253.482 181.042 253.305 181.562C253.128 182.083 252.87 182.539 252.531 182.93C252.198 183.315 251.794 183.617 251.32 183.836C250.852 184.049 250.32 184.156 249.727 184.156C249.133 184.156 248.599 184.049 248.125 183.836C247.651 183.617 247.245 183.315 246.906 182.93C246.573 182.539 246.318 182.083 246.141 181.562C245.964 181.042 245.875 180.477 245.875 179.867ZM247.32 179.688V179.867C247.32 180.289 247.37 180.688 247.469 181.062C247.568 181.432 247.716 181.76 247.914 182.047C248.117 182.333 248.37 182.56 248.672 182.727C248.974 182.888 249.326 182.969 249.727 182.969C250.122 182.969 250.469 182.888 250.766 182.727C251.068 182.56 251.318 182.333 251.516 182.047C251.714 181.76 251.862 181.432 251.961 181.062C252.065 180.688 252.117 180.289 252.117 179.867V179.688C252.117 179.271 252.065 178.878 251.961 178.508C251.862 178.133 251.711 177.802 251.508 177.516C251.31 177.224 251.06 176.995 250.758 176.828C250.461 176.661 250.112 176.578 249.711 176.578C249.315 176.578 248.966 176.661 248.664 176.828C248.367 176.995 248.117 177.224 247.914 177.516C247.716 177.802 247.568 178.133 247.469 178.508C247.37 178.878 247.32 179.271 247.32 179.688ZM256.828 177.352V184H255.383V175.547H256.75L256.828 177.352ZM256.484 179.453L255.883 179.43C255.888 178.852 255.974 178.318 256.141 177.828C256.307 177.333 256.542 176.904 256.844 176.539C257.146 176.174 257.505 175.893 257.922 175.695C258.344 175.492 258.81 175.391 259.32 175.391C259.737 175.391 260.112 175.448 260.445 175.562C260.779 175.672 261.062 175.849 261.297 176.094C261.536 176.339 261.719 176.656 261.844 177.047C261.969 177.432 262.031 177.904 262.031 178.461V184H260.578V178.445C260.578 178.003 260.513 177.648 260.383 177.383C260.253 177.112 260.062 176.917 259.812 176.797C259.562 176.672 259.255 176.609 258.891 176.609C258.531 176.609 258.203 176.685 257.906 176.836C257.615 176.987 257.362 177.195 257.148 177.461C256.94 177.727 256.776 178.031 256.656 178.375C256.542 178.714 256.484 179.073 256.484 179.453ZM273.18 182.555V178.203C273.18 177.87 273.112 177.581 272.977 177.336C272.846 177.086 272.648 176.893 272.383 176.758C272.117 176.622 271.789 176.555 271.398 176.555C271.034 176.555 270.714 176.617 270.438 176.742C270.167 176.867 269.953 177.031 269.797 177.234C269.646 177.438 269.57 177.656 269.57 177.891H268.125C268.125 177.589 268.203 177.289 268.359 176.992C268.516 176.695 268.74 176.427 269.031 176.188C269.328 175.943 269.682 175.75 270.094 175.609C270.51 175.464 270.974 175.391 271.484 175.391C272.099 175.391 272.641 175.495 273.109 175.703C273.583 175.911 273.953 176.227 274.219 176.648C274.49 177.065 274.625 177.589 274.625 178.219V182.156C274.625 182.438 274.648 182.737 274.695 183.055C274.747 183.372 274.823 183.646 274.922 183.875V184H273.414C273.341 183.833 273.284 183.612 273.242 183.336C273.201 183.055 273.18 182.794 273.18 182.555ZM273.43 178.875L273.445 179.891H271.984C271.573 179.891 271.206 179.924 270.883 179.992C270.56 180.055 270.289 180.151 270.07 180.281C269.852 180.411 269.685 180.576 269.57 180.773C269.456 180.966 269.398 181.193 269.398 181.453C269.398 181.719 269.458 181.961 269.578 182.18C269.698 182.398 269.878 182.573 270.117 182.703C270.362 182.828 270.661 182.891 271.016 182.891C271.458 182.891 271.849 182.797 272.188 182.609C272.526 182.422 272.794 182.193 272.992 181.922C273.195 181.651 273.305 181.388 273.32 181.133L273.938 181.828C273.901 182.047 273.802 182.289 273.641 182.555C273.479 182.82 273.263 183.076 272.992 183.32C272.727 183.56 272.409 183.76 272.039 183.922C271.674 184.078 271.263 184.156 270.805 184.156C270.232 184.156 269.729 184.044 269.297 183.82C268.87 183.596 268.536 183.297 268.297 182.922C268.062 182.542 267.945 182.117 267.945 181.648C267.945 181.195 268.034 180.797 268.211 180.453C268.388 180.104 268.643 179.815 268.977 179.586C269.31 179.352 269.711 179.174 270.18 179.055C270.648 178.935 271.172 178.875 271.75 178.875H273.43ZM278.469 175.547V184H277.016V175.547H278.469ZM276.906 173.305C276.906 173.07 276.977 172.872 277.117 172.711C277.263 172.549 277.477 172.469 277.758 172.469C278.034 172.469 278.245 172.549 278.391 172.711C278.542 172.872 278.617 173.07 278.617 173.305C278.617 173.529 278.542 173.721 278.391 173.883C278.245 174.039 278.034 174.117 277.758 174.117C277.477 174.117 277.263 174.039 277.117 173.883C276.977 173.721 276.906 173.529 276.906 173.305ZM282.234 176.875V184H280.789V175.547H282.195L282.234 176.875ZM284.875 175.5L284.867 176.844C284.747 176.818 284.633 176.802 284.523 176.797C284.419 176.786 284.299 176.781 284.164 176.781C283.831 176.781 283.536 176.833 283.281 176.938C283.026 177.042 282.81 177.188 282.633 177.375C282.456 177.562 282.315 177.786 282.211 178.047C282.112 178.302 282.047 178.583 282.016 178.891L281.609 179.125C281.609 178.615 281.659 178.135 281.758 177.688C281.862 177.24 282.021 176.844 282.234 176.5C282.448 176.151 282.719 175.88 283.047 175.688C283.38 175.49 283.776 175.391 284.234 175.391C284.339 175.391 284.458 175.404 284.594 175.43C284.729 175.451 284.823 175.474 284.875 175.5ZM291.625 177.172V187.25H290.172V175.547H291.5L291.625 177.172ZM297.32 179.703V179.867C297.32 180.482 297.247 181.052 297.102 181.578C296.956 182.099 296.742 182.552 296.461 182.938C296.185 183.323 295.844 183.622 295.438 183.836C295.031 184.049 294.565 184.156 294.039 184.156C293.503 184.156 293.029 184.068 292.617 183.891C292.206 183.714 291.857 183.456 291.57 183.117C291.284 182.779 291.055 182.372 290.883 181.898C290.716 181.424 290.602 180.891 290.539 180.297V179.422C290.602 178.797 290.719 178.237 290.891 177.742C291.062 177.247 291.289 176.826 291.57 176.477C291.857 176.122 292.203 175.854 292.609 175.672C293.016 175.484 293.484 175.391 294.016 175.391C294.547 175.391 295.018 175.495 295.43 175.703C295.841 175.906 296.188 176.198 296.469 176.578C296.75 176.958 296.961 177.414 297.102 177.945C297.247 178.471 297.32 179.057 297.32 179.703ZM295.867 179.867V179.703C295.867 179.281 295.823 178.885 295.734 178.516C295.646 178.141 295.508 177.812 295.32 177.531C295.138 177.245 294.904 177.021 294.617 176.859C294.331 176.693 293.99 176.609 293.594 176.609C293.229 176.609 292.911 176.672 292.641 176.797C292.375 176.922 292.148 177.091 291.961 177.305C291.773 177.513 291.62 177.753 291.5 178.023C291.385 178.289 291.299 178.565 291.242 178.852V180.875C291.346 181.24 291.492 181.583 291.68 181.906C291.867 182.224 292.117 182.482 292.43 182.68C292.742 182.872 293.135 182.969 293.609 182.969C294 182.969 294.336 182.888 294.617 182.727C294.904 182.56 295.138 182.333 295.32 182.047C295.508 181.76 295.646 181.432 295.734 181.062C295.823 180.688 295.867 180.289 295.867 179.867ZM304.336 182.047V175.547H305.789V184H304.406L304.336 182.047ZM304.609 180.266L305.211 180.25C305.211 180.812 305.151 181.333 305.031 181.812C304.917 182.286 304.729 182.698 304.469 183.047C304.208 183.396 303.867 183.669 303.445 183.867C303.023 184.06 302.51 184.156 301.906 184.156C301.495 184.156 301.117 184.096 300.773 183.977C300.435 183.857 300.143 183.672 299.898 183.422C299.654 183.172 299.464 182.846 299.328 182.445C299.198 182.044 299.133 181.562 299.133 181V175.547H300.578V181.016C300.578 181.396 300.62 181.711 300.703 181.961C300.792 182.206 300.909 182.401 301.055 182.547C301.206 182.688 301.372 182.786 301.555 182.844C301.742 182.901 301.935 182.93 302.133 182.93C302.747 182.93 303.234 182.812 303.594 182.578C303.953 182.339 304.211 182.018 304.367 181.617C304.529 181.211 304.609 180.76 304.609 180.266ZM309.438 176.875V184H307.992V175.547H309.398L309.438 176.875ZM312.078 175.5L312.07 176.844C311.951 176.818 311.836 176.802 311.727 176.797C311.622 176.786 311.503 176.781 311.367 176.781C311.034 176.781 310.74 176.833 310.484 176.938C310.229 177.042 310.013 177.188 309.836 177.375C309.659 177.562 309.518 177.786 309.414 178.047C309.315 178.302 309.25 178.583 309.219 178.891L308.812 179.125C308.812 178.615 308.862 178.135 308.961 177.688C309.065 177.24 309.224 176.844 309.438 176.5C309.651 176.151 309.922 175.88 310.25 175.688C310.583 175.49 310.979 175.391 311.438 175.391C311.542 175.391 311.661 175.404 311.797 175.43C311.932 175.451 312.026 175.474 312.078 175.5ZM314.984 175.547V184H313.531V175.547H314.984ZM313.422 173.305C313.422 173.07 313.492 172.872 313.633 172.711C313.779 172.549 313.992 172.469 314.273 172.469C314.549 172.469 314.76 172.549 314.906 172.711C315.057 172.872 315.133 173.07 315.133 173.305C315.133 173.529 315.057 173.721 314.906 173.883C314.76 174.039 314.549 174.117 314.273 174.117C313.992 174.117 313.779 174.039 313.633 173.883C313.492 173.721 313.422 173.529 313.422 173.305ZM319.234 184H317.789V174.812C317.789 174.172 317.914 173.63 318.164 173.188C318.414 172.745 318.771 172.409 319.234 172.18C319.698 171.951 320.247 171.836 320.883 171.836C321.258 171.836 321.625 171.883 321.984 171.977C322.344 172.065 322.714 172.177 323.094 172.312L322.852 173.531C322.612 173.438 322.333 173.349 322.016 173.266C321.703 173.177 321.359 173.133 320.984 173.133C320.365 173.133 319.917 173.273 319.641 173.555C319.37 173.831 319.234 174.25 319.234 174.812V184ZM320.961 175.547V176.656H316.453V175.547H320.961ZM323.805 175.547V184H322.359V175.547H323.805ZM329.688 184.156C329.099 184.156 328.565 184.057 328.086 183.859C327.612 183.656 327.203 183.372 326.859 183.008C326.521 182.643 326.26 182.211 326.078 181.711C325.896 181.211 325.805 180.664 325.805 180.07V179.742C325.805 179.055 325.906 178.443 326.109 177.906C326.312 177.365 326.589 176.906 326.938 176.531C327.286 176.156 327.682 175.872 328.125 175.68C328.568 175.487 329.026 175.391 329.5 175.391C330.104 175.391 330.625 175.495 331.062 175.703C331.505 175.911 331.867 176.203 332.148 176.578C332.43 176.948 332.638 177.385 332.773 177.891C332.909 178.391 332.977 178.938 332.977 179.531V180.18H326.664V179H331.531V178.891C331.51 178.516 331.432 178.151 331.297 177.797C331.167 177.443 330.958 177.151 330.672 176.922C330.385 176.693 329.995 176.578 329.5 176.578C329.172 176.578 328.87 176.648 328.594 176.789C328.318 176.924 328.081 177.128 327.883 177.398C327.685 177.669 327.531 178 327.422 178.391C327.312 178.781 327.258 179.232 327.258 179.742V180.07C327.258 180.471 327.312 180.849 327.422 181.203C327.536 181.552 327.701 181.859 327.914 182.125C328.133 182.391 328.396 182.599 328.703 182.75C329.016 182.901 329.37 182.977 329.766 182.977C330.276 182.977 330.708 182.872 331.062 182.664C331.417 182.456 331.727 182.177 331.992 181.828L332.867 182.523C332.685 182.799 332.453 183.062 332.172 183.312C331.891 183.562 331.544 183.766 331.133 183.922C330.727 184.078 330.245 184.156 329.688 184.156ZM336.109 176.875V184H334.664V175.547H336.07L336.109 176.875ZM338.75 175.5L338.742 176.844C338.622 176.818 338.508 176.802 338.398 176.797C338.294 176.786 338.174 176.781 338.039 176.781C337.706 176.781 337.411 176.833 337.156 176.938C336.901 177.042 336.685 177.188 336.508 177.375C336.331 177.562 336.19 177.786 336.086 178.047C335.987 178.302 335.922 178.583 335.891 178.891L335.484 179.125C335.484 178.615 335.534 178.135 335.633 177.688C335.737 177.24 335.896 176.844 336.109 176.5C336.323 176.151 336.594 175.88 336.922 175.688C337.255 175.49 337.651 175.391 338.109 175.391C338.214 175.391 338.333 175.404 338.469 175.43C338.604 175.451 338.698 175.474 338.75 175.5ZM340.43 182.281V183.445C340.43 183.919 340.31 184.419 340.07 184.945C339.831 185.477 339.495 185.919 339.062 186.273L338.242 185.703C338.409 185.474 338.549 185.24 338.664 185C338.779 184.766 338.865 184.521 338.922 184.266C338.984 184.016 339.016 183.75 339.016 183.469V182.281H340.43ZM351.164 181.758C351.164 181.549 351.117 181.357 351.023 181.18C350.935 180.997 350.75 180.833 350.469 180.688C350.193 180.536 349.776 180.406 349.219 180.297C348.75 180.198 348.326 180.081 347.945 179.945C347.57 179.81 347.25 179.646 346.984 179.453C346.724 179.26 346.523 179.034 346.383 178.773C346.242 178.513 346.172 178.208 346.172 177.859C346.172 177.526 346.245 177.211 346.391 176.914C346.542 176.617 346.753 176.354 347.023 176.125C347.299 175.896 347.63 175.716 348.016 175.586C348.401 175.456 348.831 175.391 349.305 175.391C349.982 175.391 350.56 175.51 351.039 175.75C351.518 175.99 351.885 176.31 352.141 176.711C352.396 177.107 352.523 177.547 352.523 178.031H351.078C351.078 177.797 351.008 177.57 350.867 177.352C350.732 177.128 350.531 176.943 350.266 176.797C350.005 176.651 349.685 176.578 349.305 176.578C348.904 176.578 348.578 176.641 348.328 176.766C348.083 176.885 347.904 177.039 347.789 177.227C347.68 177.414 347.625 177.612 347.625 177.82C347.625 177.977 347.651 178.117 347.703 178.242C347.76 178.362 347.859 178.474 348 178.578C348.141 178.677 348.339 178.771 348.594 178.859C348.849 178.948 349.174 179.036 349.57 179.125C350.263 179.281 350.833 179.469 351.281 179.688C351.729 179.906 352.062 180.174 352.281 180.492C352.5 180.81 352.609 181.195 352.609 181.648C352.609 182.018 352.531 182.357 352.375 182.664C352.224 182.971 352.003 183.237 351.711 183.461C351.424 183.68 351.081 183.852 350.68 183.977C350.284 184.096 349.839 184.156 349.344 184.156C348.599 184.156 347.969 184.023 347.453 183.758C346.938 183.492 346.547 183.148 346.281 182.727C346.016 182.305 345.883 181.859 345.883 181.391H347.336C347.357 181.786 347.471 182.102 347.68 182.336C347.888 182.565 348.143 182.729 348.445 182.828C348.747 182.922 349.047 182.969 349.344 182.969C349.74 182.969 350.07 182.917 350.336 182.812C350.607 182.708 350.812 182.565 350.953 182.383C351.094 182.201 351.164 181.992 351.164 181.758ZM358.016 184.156C357.427 184.156 356.893 184.057 356.414 183.859C355.94 183.656 355.531 183.372 355.188 183.008C354.849 182.643 354.589 182.211 354.406 181.711C354.224 181.211 354.133 180.664 354.133 180.07V179.742C354.133 179.055 354.234 178.443 354.438 177.906C354.641 177.365 354.917 176.906 355.266 176.531C355.615 176.156 356.01 175.872 356.453 175.68C356.896 175.487 357.354 175.391 357.828 175.391C358.432 175.391 358.953 175.495 359.391 175.703C359.833 175.911 360.195 176.203 360.477 176.578C360.758 176.948 360.966 177.385 361.102 177.891C361.237 178.391 361.305 178.938 361.305 179.531V180.18H354.992V179H359.859V178.891C359.839 178.516 359.76 178.151 359.625 177.797C359.495 177.443 359.286 177.151 359 176.922C358.714 176.693 358.323 176.578 357.828 176.578C357.5 176.578 357.198 176.648 356.922 176.789C356.646 176.924 356.409 177.128 356.211 177.398C356.013 177.669 355.859 178 355.75 178.391C355.641 178.781 355.586 179.232 355.586 179.742V180.07C355.586 180.471 355.641 180.849 355.75 181.203C355.865 181.552 356.029 181.859 356.242 182.125C356.461 182.391 356.724 182.599 357.031 182.75C357.344 182.901 357.698 182.977 358.094 182.977C358.604 182.977 359.036 182.872 359.391 182.664C359.745 182.456 360.055 182.177 360.32 181.828L361.195 182.523C361.013 182.799 360.781 183.062 360.5 183.312C360.219 183.562 359.872 183.766 359.461 183.922C359.055 184.078 358.573 184.156 358.016 184.156ZM364.438 177.352V184H362.992V175.547H364.359L364.438 177.352ZM364.094 179.453L363.492 179.43C363.497 178.852 363.583 178.318 363.75 177.828C363.917 177.333 364.151 176.904 364.453 176.539C364.755 176.174 365.115 175.893 365.531 175.695C365.953 175.492 366.419 175.391 366.93 175.391C367.346 175.391 367.721 175.448 368.055 175.562C368.388 175.672 368.672 175.849 368.906 176.094C369.146 176.339 369.328 176.656 369.453 177.047C369.578 177.432 369.641 177.904 369.641 178.461V184H368.188V178.445C368.188 178.003 368.122 177.648 367.992 177.383C367.862 177.112 367.672 176.917 367.422 176.797C367.172 176.672 366.865 176.609 366.5 176.609C366.141 176.609 365.812 176.685 365.516 176.836C365.224 176.987 364.971 177.195 364.758 177.461C364.549 177.727 364.385 178.031 364.266 178.375C364.151 178.714 364.094 179.073 364.094 179.453ZM377.164 182.359V172H378.617V184H377.289L377.164 182.359ZM371.477 179.867V179.703C371.477 179.057 371.555 178.471 371.711 177.945C371.872 177.414 372.099 176.958 372.391 176.578C372.688 176.198 373.039 175.906 373.445 175.703C373.857 175.495 374.315 175.391 374.82 175.391C375.352 175.391 375.815 175.484 376.211 175.672C376.612 175.854 376.951 176.122 377.227 176.477C377.508 176.826 377.729 177.247 377.891 177.742C378.052 178.237 378.164 178.797 378.227 179.422V180.141C378.169 180.76 378.057 181.318 377.891 181.812C377.729 182.307 377.508 182.729 377.227 183.078C376.951 183.427 376.612 183.695 376.211 183.883C375.81 184.065 375.341 184.156 374.805 184.156C374.31 184.156 373.857 184.049 373.445 183.836C373.039 183.622 372.688 183.323 372.391 182.938C372.099 182.552 371.872 182.099 371.711 181.578C371.555 181.052 371.477 180.482 371.477 179.867ZM372.93 179.703V179.867C372.93 180.289 372.971 180.685 373.055 181.055C373.143 181.424 373.279 181.75 373.461 182.031C373.643 182.312 373.875 182.534 374.156 182.695C374.438 182.852 374.773 182.93 375.164 182.93C375.643 182.93 376.036 182.828 376.344 182.625C376.656 182.422 376.906 182.154 377.094 181.82C377.281 181.487 377.427 181.125 377.531 180.734V178.852C377.469 178.565 377.378 178.289 377.258 178.023C377.143 177.753 376.992 177.513 376.805 177.305C376.622 177.091 376.396 176.922 376.125 176.797C375.859 176.672 375.544 176.609 375.18 176.609C374.784 176.609 374.443 176.693 374.156 176.859C373.875 177.021 373.643 177.245 373.461 177.531C373.279 177.812 373.143 178.141 373.055 178.516C372.971 178.885 372.93 179.281 372.93 179.703ZM389.82 182.555V178.203C389.82 177.87 389.753 177.581 389.617 177.336C389.487 177.086 389.289 176.893 389.023 176.758C388.758 176.622 388.43 176.555 388.039 176.555C387.674 176.555 387.354 176.617 387.078 176.742C386.807 176.867 386.594 177.031 386.438 177.234C386.286 177.438 386.211 177.656 386.211 177.891H384.766C384.766 177.589 384.844 177.289 385 176.992C385.156 176.695 385.38 176.427 385.672 176.188C385.969 175.943 386.323 175.75 386.734 175.609C387.151 175.464 387.615 175.391 388.125 175.391C388.74 175.391 389.281 175.495 389.75 175.703C390.224 175.911 390.594 176.227 390.859 176.648C391.13 177.065 391.266 177.589 391.266 178.219V182.156C391.266 182.438 391.289 182.737 391.336 183.055C391.388 183.372 391.464 183.646 391.562 183.875V184H390.055C389.982 183.833 389.924 183.612 389.883 183.336C389.841 183.055 389.82 182.794 389.82 182.555ZM390.07 178.875L390.086 179.891H388.625C388.214 179.891 387.846 179.924 387.523 179.992C387.201 180.055 386.93 180.151 386.711 180.281C386.492 180.411 386.326 180.576 386.211 180.773C386.096 180.966 386.039 181.193 386.039 181.453C386.039 181.719 386.099 181.961 386.219 182.18C386.339 182.398 386.518 182.573 386.758 182.703C387.003 182.828 387.302 182.891 387.656 182.891C388.099 182.891 388.49 182.797 388.828 182.609C389.167 182.422 389.435 182.193 389.633 181.922C389.836 181.651 389.945 181.388 389.961 181.133L390.578 181.828C390.542 182.047 390.443 182.289 390.281 182.555C390.12 182.82 389.904 183.076 389.633 183.32C389.367 183.56 389.049 183.76 388.68 183.922C388.315 184.078 387.904 184.156 387.445 184.156C386.872 184.156 386.37 184.044 385.938 183.82C385.51 183.596 385.177 183.297 384.938 182.922C384.703 182.542 384.586 182.117 384.586 181.648C384.586 181.195 384.674 180.797 384.852 180.453C385.029 180.104 385.284 179.815 385.617 179.586C385.951 179.352 386.352 179.174 386.82 179.055C387.289 178.935 387.812 178.875 388.391 178.875H390.07ZM395.109 172V184H393.656V172H395.109ZM400.938 184.156C400.349 184.156 399.815 184.057 399.336 183.859C398.862 183.656 398.453 183.372 398.109 183.008C397.771 182.643 397.51 182.211 397.328 181.711C397.146 181.211 397.055 180.664 397.055 180.07V179.742C397.055 179.055 397.156 178.443 397.359 177.906C397.562 177.365 397.839 176.906 398.188 176.531C398.536 176.156 398.932 175.872 399.375 175.68C399.818 175.487 400.276 175.391 400.75 175.391C401.354 175.391 401.875 175.495 402.312 175.703C402.755 175.911 403.117 176.203 403.398 176.578C403.68 176.948 403.888 177.385 404.023 177.891C404.159 178.391 404.227 178.938 404.227 179.531V180.18H397.914V179H402.781V178.891C402.76 178.516 402.682 178.151 402.547 177.797C402.417 177.443 402.208 177.151 401.922 176.922C401.635 176.693 401.245 176.578 400.75 176.578C400.422 176.578 400.12 176.648 399.844 176.789C399.568 176.924 399.331 177.128 399.133 177.398C398.935 177.669 398.781 178 398.672 178.391C398.562 178.781 398.508 179.232 398.508 179.742V180.07C398.508 180.471 398.562 180.849 398.672 181.203C398.786 181.552 398.951 181.859 399.164 182.125C399.383 182.391 399.646 182.599 399.953 182.75C400.266 182.901 400.62 182.977 401.016 182.977C401.526 182.977 401.958 182.872 402.312 182.664C402.667 182.456 402.977 182.177 403.242 181.828L404.117 182.523C403.935 182.799 403.703 183.062 403.422 183.312C403.141 183.562 402.794 183.766 402.383 183.922C401.977 184.078 401.495 184.156 400.938 184.156ZM407.359 176.875V184H405.914V175.547H407.32L407.359 176.875ZM410 175.5L409.992 176.844C409.872 176.818 409.758 176.802 409.648 176.797C409.544 176.786 409.424 176.781 409.289 176.781C408.956 176.781 408.661 176.833 408.406 176.938C408.151 177.042 407.935 177.188 407.758 177.375C407.581 177.562 407.44 177.786 407.336 178.047C407.237 178.302 407.172 178.583 407.141 178.891L406.734 179.125C406.734 178.615 406.784 178.135 406.883 177.688C406.987 177.24 407.146 176.844 407.359 176.5C407.573 176.151 407.844 175.88 408.172 175.688C408.505 175.49 408.901 175.391 409.359 175.391C409.464 175.391 409.583 175.404 409.719 175.43C409.854 175.451 409.948 175.474 410 175.5ZM415.266 175.547V176.656H410.695V175.547H415.266ZM412.242 173.492H413.688V181.906C413.688 182.193 413.732 182.409 413.82 182.555C413.909 182.701 414.023 182.797 414.164 182.844C414.305 182.891 414.456 182.914 414.617 182.914C414.737 182.914 414.862 182.904 414.992 182.883C415.128 182.857 415.229 182.836 415.297 182.82L415.305 184C415.19 184.036 415.039 184.07 414.852 184.102C414.669 184.138 414.448 184.156 414.188 184.156C413.833 184.156 413.508 184.086 413.211 183.945C412.914 183.805 412.677 183.57 412.5 183.242C412.328 182.909 412.242 182.461 412.242 181.898V173.492ZM418.273 182.281V183.445C418.273 183.919 418.154 184.419 417.914 184.945C417.674 185.477 417.339 185.919 416.906 186.273L416.086 185.703C416.253 185.474 416.393 185.24 416.508 185C416.622 184.766 416.708 184.521 416.766 184.266C416.828 184.016 416.859 183.75 416.859 183.469V182.281H418.273ZM429.07 182.555V178.203C429.07 177.87 429.003 177.581 428.867 177.336C428.737 177.086 428.539 176.893 428.273 176.758C428.008 176.622 427.68 176.555 427.289 176.555C426.924 176.555 426.604 176.617 426.328 176.742C426.057 176.867 425.844 177.031 425.688 177.234C425.536 177.438 425.461 177.656 425.461 177.891H424.016C424.016 177.589 424.094 177.289 424.25 176.992C424.406 176.695 424.63 176.427 424.922 176.188C425.219 175.943 425.573 175.75 425.984 175.609C426.401 175.464 426.865 175.391 427.375 175.391C427.99 175.391 428.531 175.495 429 175.703C429.474 175.911 429.844 176.227 430.109 176.648C430.38 177.065 430.516 177.589 430.516 178.219V182.156C430.516 182.438 430.539 182.737 430.586 183.055C430.638 183.372 430.714 183.646 430.812 183.875V184H429.305C429.232 183.833 429.174 183.612 429.133 183.336C429.091 183.055 429.07 182.794 429.07 182.555ZM429.32 178.875L429.336 179.891H427.875C427.464 179.891 427.096 179.924 426.773 179.992C426.451 180.055 426.18 180.151 425.961 180.281C425.742 180.411 425.576 180.576 425.461 180.773C425.346 180.966 425.289 181.193 425.289 181.453C425.289 181.719 425.349 181.961 425.469 182.18C425.589 182.398 425.768 182.573 426.008 182.703C426.253 182.828 426.552 182.891 426.906 182.891C427.349 182.891 427.74 182.797 428.078 182.609C428.417 182.422 428.685 182.193 428.883 181.922C429.086 181.651 429.195 181.388 429.211 181.133L429.828 181.828C429.792 182.047 429.693 182.289 429.531 182.555C429.37 182.82 429.154 183.076 428.883 183.32C428.617 183.56 428.299 183.76 427.93 183.922C427.565 184.078 427.154 184.156 426.695 184.156C426.122 184.156 425.62 184.044 425.188 183.82C424.76 183.596 424.427 183.297 424.188 182.922C423.953 182.542 423.836 182.117 423.836 181.648C423.836 181.195 423.924 180.797 424.102 180.453C424.279 180.104 424.534 179.815 424.867 179.586C425.201 179.352 425.602 179.174 426.07 179.055C426.539 178.935 427.062 178.875 427.641 178.875H429.32ZM434.234 177.352V184H432.789V175.547H434.156L434.234 177.352ZM433.891 179.453L433.289 179.43C433.294 178.852 433.38 178.318 433.547 177.828C433.714 177.333 433.948 176.904 434.25 176.539C434.552 176.174 434.911 175.893 435.328 175.695C435.75 175.492 436.216 175.391 436.727 175.391C437.143 175.391 437.518 175.448 437.852 175.562C438.185 175.672 438.469 175.849 438.703 176.094C438.943 176.339 439.125 176.656 439.25 177.047C439.375 177.432 439.438 177.904 439.438 178.461V184H437.984V178.445C437.984 178.003 437.919 177.648 437.789 177.383C437.659 177.112 437.469 176.917 437.219 176.797C436.969 176.672 436.661 176.609 436.297 176.609C435.938 176.609 435.609 176.685 435.312 176.836C435.021 176.987 434.768 177.195 434.555 177.461C434.346 177.727 434.182 178.031 434.062 178.375C433.948 178.714 433.891 179.073 433.891 179.453ZM446.961 182.359V172H448.414V184H447.086L446.961 182.359ZM441.273 179.867V179.703C441.273 179.057 441.352 178.471 441.508 177.945C441.669 177.414 441.896 176.958 442.188 176.578C442.484 176.198 442.836 175.906 443.242 175.703C443.654 175.495 444.112 175.391 444.617 175.391C445.148 175.391 445.612 175.484 446.008 175.672C446.409 175.854 446.747 176.122 447.023 176.477C447.305 176.826 447.526 177.247 447.688 177.742C447.849 178.237 447.961 178.797 448.023 179.422V180.141C447.966 180.76 447.854 181.318 447.688 181.812C447.526 182.307 447.305 182.729 447.023 183.078C446.747 183.427 446.409 183.695 446.008 183.883C445.607 184.065 445.138 184.156 444.602 184.156C444.107 184.156 443.654 184.049 443.242 183.836C442.836 183.622 442.484 183.323 442.188 182.938C441.896 182.552 441.669 182.099 441.508 181.578C441.352 181.052 441.273 180.482 441.273 179.867ZM442.727 179.703V179.867C442.727 180.289 442.768 180.685 442.852 181.055C442.94 181.424 443.076 181.75 443.258 182.031C443.44 182.312 443.672 182.534 443.953 182.695C444.234 182.852 444.57 182.93 444.961 182.93C445.44 182.93 445.833 182.828 446.141 182.625C446.453 182.422 446.703 182.154 446.891 181.82C447.078 181.487 447.224 181.125 447.328 180.734V178.852C447.266 178.565 447.174 178.289 447.055 178.023C446.94 177.753 446.789 177.513 446.602 177.305C446.419 177.091 446.193 176.922 445.922 176.797C445.656 176.672 445.341 176.609 444.977 176.609C444.581 176.609 444.24 176.693 443.953 176.859C443.672 177.021 443.44 177.245 443.258 177.531C443.076 177.812 442.94 178.141 442.852 178.516C442.768 178.885 442.727 179.281 442.727 179.703ZM84.0859 204.555V200.203C84.0859 199.87 84.0182 199.581 83.8828 199.336C83.7526 199.086 83.5547 198.893 83.2891 198.758C83.0234 198.622 82.6953 198.555 82.3047 198.555C81.9401 198.555 81.6198 198.617 81.3438 198.742C81.0729 198.867 80.8594 199.031 80.7031 199.234C80.5521 199.438 80.4766 199.656 80.4766 199.891H79.0312C79.0312 199.589 79.1094 199.289 79.2656 198.992C79.4219 198.695 79.6458 198.427 79.9375 198.188C80.2344 197.943 80.5885 197.75 81 197.609C81.4167 197.464 81.8802 197.391 82.3906 197.391C83.0052 197.391 83.5469 197.495 84.0156 197.703C84.4896 197.911 84.8594 198.227 85.125 198.648C85.3958 199.065 85.5312 199.589 85.5312 200.219V204.156C85.5312 204.438 85.5547 204.737 85.6016 205.055C85.6536 205.372 85.7292 205.646 85.8281 205.875V206H84.3203C84.2474 205.833 84.1901 205.612 84.1484 205.336C84.1068 205.055 84.0859 204.794 84.0859 204.555ZM84.3359 200.875L84.3516 201.891H82.8906C82.4792 201.891 82.112 201.924 81.7891 201.992C81.4661 202.055 81.1953 202.151 80.9766 202.281C80.7578 202.411 80.5911 202.576 80.4766 202.773C80.362 202.966 80.3047 203.193 80.3047 203.453C80.3047 203.719 80.3646 203.961 80.4844 204.18C80.6042 204.398 80.7839 204.573 81.0234 204.703C81.2682 204.828 81.5677 204.891 81.9219 204.891C82.3646 204.891 82.7552 204.797 83.0938 204.609C83.4323 204.422 83.7005 204.193 83.8984 203.922C84.1016 203.651 84.2109 203.388 84.2266 203.133L84.8438 203.828C84.8073 204.047 84.7083 204.289 84.5469 204.555C84.3854 204.82 84.1693 205.076 83.8984 205.32C83.6328 205.56 83.3151 205.76 82.9453 205.922C82.5807 206.078 82.1693 206.156 81.7109 206.156C81.138 206.156 80.6354 206.044 80.2031 205.82C79.776 205.596 79.4427 205.297 79.2031 204.922C78.9688 204.542 78.8516 204.117 78.8516 203.648C78.8516 203.195 78.9401 202.797 79.1172 202.453C79.2943 202.104 79.5495 201.815 79.8828 201.586C80.2161 201.352 80.6172 201.174 81.0859 201.055C81.5547 200.935 82.0781 200.875 82.6562 200.875H84.3359ZM93.1328 204.359V194H94.5859V206H93.2578L93.1328 204.359ZM87.4453 201.867V201.703C87.4453 201.057 87.5234 200.471 87.6797 199.945C87.8411 199.414 88.0677 198.958 88.3594 198.578C88.6562 198.198 89.0078 197.906 89.4141 197.703C89.8255 197.495 90.2839 197.391 90.7891 197.391C91.3203 197.391 91.7839 197.484 92.1797 197.672C92.5807 197.854 92.9193 198.122 93.1953 198.477C93.4766 198.826 93.6979 199.247 93.8594 199.742C94.0208 200.237 94.1328 200.797 94.1953 201.422V202.141C94.138 202.76 94.026 203.318 93.8594 203.812C93.6979 204.307 93.4766 204.729 93.1953 205.078C92.9193 205.427 92.5807 205.695 92.1797 205.883C91.7786 206.065 91.3099 206.156 90.7734 206.156C90.2786 206.156 89.8255 206.049 89.4141 205.836C89.0078 205.622 88.6562 205.323 88.3594 204.938C88.0677 204.552 87.8411 204.099 87.6797 203.578C87.5234 203.052 87.4453 202.482 87.4453 201.867ZM88.8984 201.703V201.867C88.8984 202.289 88.9401 202.685 89.0234 203.055C89.112 203.424 89.2474 203.75 89.4297 204.031C89.612 204.312 89.8438 204.534 90.125 204.695C90.4062 204.852 90.7422 204.93 91.1328 204.93C91.612 204.93 92.0052 204.828 92.3125 204.625C92.625 204.422 92.875 204.154 93.0625 203.82C93.25 203.487 93.3958 203.125 93.5 202.734V200.852C93.4375 200.565 93.3464 200.289 93.2266 200.023C93.112 199.753 92.9609 199.513 92.7734 199.305C92.5911 199.091 92.3646 198.922 92.0938 198.797C91.8281 198.672 91.513 198.609 91.1484 198.609C90.7526 198.609 90.4115 198.693 90.125 198.859C89.8438 199.021 89.612 199.245 89.4297 199.531C89.2474 199.812 89.112 200.141 89.0234 200.516C88.9401 200.885 88.8984 201.281 88.8984 201.703ZM96.875 197.547H98.3281V207.008C98.3281 207.523 98.2448 207.961 98.0781 208.32C97.9167 208.68 97.6719 208.951 97.3438 209.133C97.0208 209.32 96.612 209.414 96.1172 209.414C95.987 209.414 95.8359 209.401 95.6641 209.375C95.487 209.349 95.3385 209.318 95.2188 209.281L95.2266 208.117C95.3255 208.138 95.4375 208.154 95.5625 208.164C95.6875 208.18 95.7969 208.188 95.8906 208.188C96.1042 208.188 96.2839 208.148 96.4297 208.07C96.5755 207.992 96.6849 207.867 96.7578 207.695C96.8359 207.523 96.875 207.294 96.875 207.008V197.547ZM96.7266 195.305C96.7266 195.07 96.7995 194.872 96.9453 194.711C97.0911 194.549 97.3021 194.469 97.5781 194.469C97.8594 194.469 98.0729 194.549 98.2188 194.711C98.3646 194.872 98.4375 195.07 98.4375 195.305C98.4375 195.529 98.3646 195.721 98.2188 195.883C98.0729 196.039 97.8594 196.117 97.5781 196.117C97.3021 196.117 97.0911 196.039 96.9453 195.883C96.7995 195.721 96.7266 195.529 96.7266 195.305ZM105.836 204.047V197.547H107.289V206H105.906L105.836 204.047ZM106.109 202.266L106.711 202.25C106.711 202.812 106.651 203.333 106.531 203.812C106.417 204.286 106.229 204.698 105.969 205.047C105.708 205.396 105.367 205.669 104.945 205.867C104.523 206.06 104.01 206.156 103.406 206.156C102.995 206.156 102.617 206.096 102.273 205.977C101.935 205.857 101.643 205.672 101.398 205.422C101.154 205.172 100.964 204.846 100.828 204.445C100.698 204.044 100.633 203.562 100.633 203V197.547H102.078V203.016C102.078 203.396 102.12 203.711 102.203 203.961C102.292 204.206 102.409 204.401 102.555 204.547C102.706 204.688 102.872 204.786 103.055 204.844C103.242 204.901 103.435 204.93 103.633 204.93C104.247 204.93 104.734 204.812 105.094 204.578C105.453 204.339 105.711 204.018 105.867 203.617C106.029 203.211 106.109 202.76 106.109 202.266ZM114.414 203.758C114.414 203.549 114.367 203.357 114.273 203.18C114.185 202.997 114 202.833 113.719 202.688C113.443 202.536 113.026 202.406 112.469 202.297C112 202.198 111.576 202.081 111.195 201.945C110.82 201.81 110.5 201.646 110.234 201.453C109.974 201.26 109.773 201.034 109.633 200.773C109.492 200.513 109.422 200.208 109.422 199.859C109.422 199.526 109.495 199.211 109.641 198.914C109.792 198.617 110.003 198.354 110.273 198.125C110.549 197.896 110.88 197.716 111.266 197.586C111.651 197.456 112.081 197.391 112.555 197.391C113.232 197.391 113.81 197.51 114.289 197.75C114.768 197.99 115.135 198.31 115.391 198.711C115.646 199.107 115.773 199.547 115.773 200.031H114.328C114.328 199.797 114.258 199.57 114.117 199.352C113.982 199.128 113.781 198.943 113.516 198.797C113.255 198.651 112.935 198.578 112.555 198.578C112.154 198.578 111.828 198.641 111.578 198.766C111.333 198.885 111.154 199.039 111.039 199.227C110.93 199.414 110.875 199.612 110.875 199.82C110.875 199.977 110.901 200.117 110.953 200.242C111.01 200.362 111.109 200.474 111.25 200.578C111.391 200.677 111.589 200.771 111.844 200.859C112.099 200.948 112.424 201.036 112.82 201.125C113.513 201.281 114.083 201.469 114.531 201.688C114.979 201.906 115.312 202.174 115.531 202.492C115.75 202.81 115.859 203.195 115.859 203.648C115.859 204.018 115.781 204.357 115.625 204.664C115.474 204.971 115.253 205.237 114.961 205.461C114.674 205.68 114.331 205.852 113.93 205.977C113.534 206.096 113.089 206.156 112.594 206.156C111.849 206.156 111.219 206.023 110.703 205.758C110.188 205.492 109.797 205.148 109.531 204.727C109.266 204.305 109.133 203.859 109.133 203.391H110.586C110.607 203.786 110.721 204.102 110.93 204.336C111.138 204.565 111.393 204.729 111.695 204.828C111.997 204.922 112.297 204.969 112.594 204.969C112.99 204.969 113.32 204.917 113.586 204.812C113.857 204.708 114.062 204.565 114.203 204.383C114.344 204.201 114.414 203.992 114.414 203.758ZM121.297 197.547V198.656H116.727V197.547H121.297ZM118.273 195.492H119.719V203.906C119.719 204.193 119.763 204.409 119.852 204.555C119.94 204.701 120.055 204.797 120.195 204.844C120.336 204.891 120.487 204.914 120.648 204.914C120.768 204.914 120.893 204.904 121.023 204.883C121.159 204.857 121.26 204.836 121.328 204.82L121.336 206C121.221 206.036 121.07 206.07 120.883 206.102C120.701 206.138 120.479 206.156 120.219 206.156C119.865 206.156 119.539 206.086 119.242 205.945C118.945 205.805 118.708 205.57 118.531 205.242C118.359 204.909 118.273 204.461 118.273 203.898V195.492ZM129.531 204.695L131.844 197.547H133.32L130.281 206H129.312L129.531 204.695ZM127.602 197.547L129.984 204.734L130.148 206H129.18L126.117 197.547H127.602ZM138.109 206.156C137.521 206.156 136.987 206.057 136.508 205.859C136.034 205.656 135.625 205.372 135.281 205.008C134.943 204.643 134.682 204.211 134.5 203.711C134.318 203.211 134.227 202.664 134.227 202.07V201.742C134.227 201.055 134.328 200.443 134.531 199.906C134.734 199.365 135.01 198.906 135.359 198.531C135.708 198.156 136.104 197.872 136.547 197.68C136.99 197.487 137.448 197.391 137.922 197.391C138.526 197.391 139.047 197.495 139.484 197.703C139.927 197.911 140.289 198.203 140.57 198.578C140.852 198.948 141.06 199.385 141.195 199.891C141.331 200.391 141.398 200.938 141.398 201.531V202.18H135.086V201H139.953V200.891C139.932 200.516 139.854 200.151 139.719 199.797C139.589 199.443 139.38 199.151 139.094 198.922C138.807 198.693 138.417 198.578 137.922 198.578C137.594 198.578 137.292 198.648 137.016 198.789C136.74 198.924 136.503 199.128 136.305 199.398C136.107 199.669 135.953 200 135.844 200.391C135.734 200.781 135.68 201.232 135.68 201.742V202.07C135.68 202.471 135.734 202.849 135.844 203.203C135.958 203.552 136.122 203.859 136.336 204.125C136.555 204.391 136.818 204.599 137.125 204.75C137.438 204.901 137.792 204.977 138.188 204.977C138.698 204.977 139.13 204.872 139.484 204.664C139.839 204.456 140.148 204.177 140.414 203.828L141.289 204.523C141.107 204.799 140.875 205.062 140.594 205.312C140.312 205.562 139.966 205.766 139.555 205.922C139.148 206.078 138.667 206.156 138.109 206.156ZM144.531 199.352V206H143.086V197.547H144.453L144.531 199.352ZM144.188 201.453L143.586 201.43C143.591 200.852 143.677 200.318 143.844 199.828C144.01 199.333 144.245 198.904 144.547 198.539C144.849 198.174 145.208 197.893 145.625 197.695C146.047 197.492 146.513 197.391 147.023 197.391C147.44 197.391 147.815 197.448 148.148 197.562C148.482 197.672 148.766 197.849 149 198.094C149.24 198.339 149.422 198.656 149.547 199.047C149.672 199.432 149.734 199.904 149.734 200.461V206H148.281V200.445C148.281 200.003 148.216 199.648 148.086 199.383C147.956 199.112 147.766 198.917 147.516 198.797C147.266 198.672 146.958 198.609 146.594 198.609C146.234 198.609 145.906 198.685 145.609 198.836C145.318 198.987 145.065 199.195 144.852 199.461C144.643 199.727 144.479 200.031 144.359 200.375C144.245 200.714 144.188 201.073 144.188 201.453ZM155.469 197.547V198.656H150.898V197.547H155.469ZM152.445 195.492H153.891V203.906C153.891 204.193 153.935 204.409 154.023 204.555C154.112 204.701 154.227 204.797 154.367 204.844C154.508 204.891 154.659 204.914 154.82 204.914C154.94 204.914 155.065 204.904 155.195 204.883C155.331 204.857 155.432 204.836 155.5 204.82L155.508 206C155.393 206.036 155.242 206.07 155.055 206.102C154.872 206.138 154.651 206.156 154.391 206.156C154.036 206.156 153.711 206.086 153.414 205.945C153.117 205.805 152.88 205.57 152.703 205.242C152.531 204.909 152.445 204.461 152.445 203.898V195.492ZM158.734 197.547V206H157.281V197.547H158.734ZM157.172 195.305C157.172 195.07 157.242 194.872 157.383 194.711C157.529 194.549 157.742 194.469 158.023 194.469C158.299 194.469 158.51 194.549 158.656 194.711C158.807 194.872 158.883 195.07 158.883 195.305C158.883 195.529 158.807 195.721 158.656 195.883C158.51 196.039 158.299 196.117 158.023 196.117C157.742 196.117 157.529 196.039 157.383 195.883C157.242 195.721 157.172 195.529 157.172 195.305ZM162.625 194V206H161.172V194H162.625ZM169.93 204.555V200.203C169.93 199.87 169.862 199.581 169.727 199.336C169.596 199.086 169.398 198.893 169.133 198.758C168.867 198.622 168.539 198.555 168.148 198.555C167.784 198.555 167.464 198.617 167.188 198.742C166.917 198.867 166.703 199.031 166.547 199.234C166.396 199.438 166.32 199.656 166.32 199.891H164.875C164.875 199.589 164.953 199.289 165.109 198.992C165.266 198.695 165.49 198.427 165.781 198.188C166.078 197.943 166.432 197.75 166.844 197.609C167.26 197.464 167.724 197.391 168.234 197.391C168.849 197.391 169.391 197.495 169.859 197.703C170.333 197.911 170.703 198.227 170.969 198.648C171.24 199.065 171.375 199.589 171.375 200.219V204.156C171.375 204.438 171.398 204.737 171.445 205.055C171.497 205.372 171.573 205.646 171.672 205.875V206H170.164C170.091 205.833 170.034 205.612 169.992 205.336C169.951 205.055 169.93 204.794 169.93 204.555ZM170.18 200.875L170.195 201.891H168.734C168.323 201.891 167.956 201.924 167.633 201.992C167.31 202.055 167.039 202.151 166.82 202.281C166.602 202.411 166.435 202.576 166.32 202.773C166.206 202.966 166.148 203.193 166.148 203.453C166.148 203.719 166.208 203.961 166.328 204.18C166.448 204.398 166.628 204.573 166.867 204.703C167.112 204.828 167.411 204.891 167.766 204.891C168.208 204.891 168.599 204.797 168.938 204.609C169.276 204.422 169.544 204.193 169.742 203.922C169.945 203.651 170.055 203.388 170.07 203.133L170.688 203.828C170.651 204.047 170.552 204.289 170.391 204.555C170.229 204.82 170.013 205.076 169.742 205.32C169.477 205.56 169.159 205.76 168.789 205.922C168.424 206.078 168.013 206.156 167.555 206.156C166.982 206.156 166.479 206.044 166.047 205.82C165.62 205.596 165.286 205.297 165.047 204.922C164.812 204.542 164.695 204.117 164.695 203.648C164.695 203.195 164.784 202.797 164.961 202.453C165.138 202.104 165.393 201.815 165.727 201.586C166.06 201.352 166.461 201.174 166.93 201.055C167.398 200.935 167.922 200.875 168.5 200.875H170.18ZM177.188 197.547V198.656H172.617V197.547H177.188ZM174.164 195.492H175.609V203.906C175.609 204.193 175.654 204.409 175.742 204.555C175.831 204.701 175.945 204.797 176.086 204.844C176.227 204.891 176.378 204.914 176.539 204.914C176.659 204.914 176.784 204.904 176.914 204.883C177.049 204.857 177.151 204.836 177.219 204.82L177.227 206C177.112 206.036 176.961 206.07 176.773 206.102C176.591 206.138 176.37 206.156 176.109 206.156C175.755 206.156 175.43 206.086 175.133 205.945C174.836 205.805 174.599 205.57 174.422 205.242C174.25 204.909 174.164 204.461 174.164 203.898V195.492ZM180.453 197.547V206H179V197.547H180.453ZM178.891 195.305C178.891 195.07 178.961 194.872 179.102 194.711C179.247 194.549 179.461 194.469 179.742 194.469C180.018 194.469 180.229 194.549 180.375 194.711C180.526 194.872 180.602 195.07 180.602 195.305C180.602 195.529 180.526 195.721 180.375 195.883C180.229 196.039 180.018 196.117 179.742 196.117C179.461 196.117 179.247 196.039 179.102 195.883C178.961 195.721 178.891 195.529 178.891 195.305ZM182.391 201.867V201.688C182.391 201.078 182.479 200.513 182.656 199.992C182.833 199.466 183.089 199.01 183.422 198.625C183.755 198.234 184.159 197.932 184.633 197.719C185.107 197.5 185.638 197.391 186.227 197.391C186.82 197.391 187.354 197.5 187.828 197.719C188.307 197.932 188.714 198.234 189.047 198.625C189.385 199.01 189.643 199.466 189.82 199.992C189.997 200.513 190.086 201.078 190.086 201.688V201.867C190.086 202.477 189.997 203.042 189.82 203.562C189.643 204.083 189.385 204.539 189.047 204.93C188.714 205.315 188.31 205.617 187.836 205.836C187.367 206.049 186.836 206.156 186.242 206.156C185.648 206.156 185.115 206.049 184.641 205.836C184.167 205.617 183.76 205.315 183.422 204.93C183.089 204.539 182.833 204.083 182.656 203.562C182.479 203.042 182.391 202.477 182.391 201.867ZM183.836 201.688V201.867C183.836 202.289 183.885 202.688 183.984 203.062C184.083 203.432 184.232 203.76 184.43 204.047C184.633 204.333 184.885 204.56 185.188 204.727C185.49 204.888 185.841 204.969 186.242 204.969C186.638 204.969 186.984 204.888 187.281 204.727C187.583 204.56 187.833 204.333 188.031 204.047C188.229 203.76 188.378 203.432 188.477 203.062C188.581 202.688 188.633 202.289 188.633 201.867V201.688C188.633 201.271 188.581 200.878 188.477 200.508C188.378 200.133 188.227 199.802 188.023 199.516C187.826 199.224 187.576 198.995 187.273 198.828C186.977 198.661 186.628 198.578 186.227 198.578C185.831 198.578 185.482 198.661 185.18 198.828C184.883 198.995 184.633 199.224 184.43 199.516C184.232 199.802 184.083 200.133 183.984 200.508C183.885 200.878 183.836 201.271 183.836 201.688ZM193.344 199.352V206H191.898V197.547H193.266L193.344 199.352ZM193 201.453L192.398 201.43C192.404 200.852 192.49 200.318 192.656 199.828C192.823 199.333 193.057 198.904 193.359 198.539C193.661 198.174 194.021 197.893 194.438 197.695C194.859 197.492 195.326 197.391 195.836 197.391C196.253 197.391 196.628 197.448 196.961 197.562C197.294 197.672 197.578 197.849 197.812 198.094C198.052 198.339 198.234 198.656 198.359 199.047C198.484 199.432 198.547 199.904 198.547 200.461V206H197.094V200.445C197.094 200.003 197.029 199.648 196.898 199.383C196.768 199.112 196.578 198.917 196.328 198.797C196.078 198.672 195.771 198.609 195.406 198.609C195.047 198.609 194.719 198.685 194.422 198.836C194.13 198.987 193.878 199.195 193.664 199.461C193.456 199.727 193.292 200.031 193.172 200.375C193.057 200.714 193 201.073 193 201.453Z" fill="#212121" fill-opacity="0.65"/>
<circle cx="107" cy="101" r="29" fill="url(#paint0_linear_90_124)"/>
<path d="M119.345 89.953C117.603 88.048 115.28 87 112.803 87C110.662 87 108.635 87.784 107 89.227C105.365 87.784 103.338 87 101.197 87C98.72 87 96.397 88.048 94.655 89.953C91.115 93.823 91.115 100.119 94.655 103.989L106.261 116.676C106.451 116.882 106.719 117 107 117C107.281 117 107.549 116.882 107.739 116.675L119.345 103.988C122.885 100.119 122.885 93.823 119.345 89.953ZM117.867 102.639L107 114.518L96.132 102.639C93.273 99.514 93.273 94.428 96.132 91.303C97.491 89.817 99.289 89 101.197 89C103.105 89 104.903 89.817 106.261 91.302C106.64 91.716 107.359 91.716 107.739 91.302C109.097 89.817 110.895 89 112.803 89C114.711 89 116.51 89.817 117.868 91.302C120.727 94.428 120.727 99.514 117.867 102.639Z" fill="white"/>
<path d="M115 99H112.5L109.8 95.4C109.592 95.123 109.259 94.974 108.91 95.004C108.565 95.035 108.261 95.243 108.105 95.553L104.829 102.106L102.8 99.4C102.611 99.148 102.315 99 102 99H99C98.448 99 98 99.448 98 100C98 100.552 98.448 101 99 101H101.5L104.2 104.6C104.39 104.853 104.687 105 105 105C105.03 105 105.06 104.999 105.09 104.996C105.435 104.965 105.739 104.757 105.895 104.447L109.171 97.894L111.2 100.6C111.388 100.852 111.685 101 112 101H115C115.552 101 116 100.552 116 100C116 99.448 115.552 99 115 99Z" fill="white"/>
</g>
</g>
<defs>
<filter id="filter0_d_90_124" x="0" y="0" width="565" height="317" filterUnits="userSpaceOnUse" color-interpolation-filters="sRGB">
<feFlood flood-opacity="0" result="BackgroundImageFix"/>
<feColorMatrix in="SourceAlpha" type="matrix" values="0 0 0 0 0 0 0 0 0 0 0 0 0 0 0 0 0 0 127 0" result="hardAlpha"/>
<feOffset dy="4"/>
<feGaussianBlur stdDeviation="25"/>
<feComposite in2="hardAlpha" operator="out"/>
<feColorMatrix type="matrix" values="0 0 0 0 0.215686 0 0 0 0 0.207843 0 0 0 0 0.211765 0 0 0 0.2 0"/>
<feBlend mode="normal" in2="BackgroundImageFix" result="effect1_dropShadow_90_124"/>
<feBlend mode="normal" in="SourceGraphic" in2="effect1_dropShadow_90_124" result="shape"/>
</filter>
<linearGradient id="paint0_linear_90_124" x1="107" y1="72" x2="107" y2="130" gradientUnits="userSpaceOnUse">
<stop stop-color="#5C755E"/>
<stop offset="1" stop-color="#5C755E"/>
</linearGradient>
<clipPath id="clip0_90_124">
<rect x="50" y="46" width="465" height="217" rx="20" fill="white"/>
</clipPath>
</defs>
</svg>
