<svg width="28" height="28" viewBox="0 0 28 28" fill="none" xmlns="http://www.w3.org/2000/svg">
<circle cx="14.1174" cy="14.0002" r="13.3117" fill="white"/>
<path d="M11.7879 7.49402C11.4768 7.49402 11.2222 7.7486 11.2222 8.05977C11.2222 8.37093 11.4768 8.62551 11.7879 8.62551H12.9194C13.2306 8.62551 13.4852 8.37093 13.4852 8.05977C13.4852 7.7486 13.2306 7.49402 12.9194 7.49402H11.7879Z" fill="#5C755E"/>
<path d="M21.4057 14.3085C21.4057 13.358 20.6335 12.5858 19.683 12.5858H18.8401C18.7241 11.6608 18.048 10.9083 17.1626 10.6792V9.75704C17.1626 9.44588 16.908 9.19129 16.5969 9.19129C16.2857 9.19129 16.0311 9.44588 16.0311 9.75704V10.6792C15.1457 10.9083 14.4697 11.6608 14.3537 12.5858H13.5107C12.5603 12.5858 11.788 13.358 11.788 14.3085C10.9875 14.4443 10.3737 15.1401 10.3737 15.9803C10.3737 16.8289 10.9988 17.5304 11.8135 17.6549C11.9521 18.4695 12.6593 19.0919 13.5107 19.0919H16.0311V20.4751C16.0311 20.8032 15.7624 21.072 15.4343 21.072H9.27328C8.94515 21.072 8.67642 20.8032 8.67642 20.4751V7.52517C8.67642 7.19704 8.94515 6.92831 9.27328 6.92831H15.4371C15.7624 6.92831 16.0311 7.19704 16.0311 7.52517V8.0598C16.0311 8.37096 16.2857 8.62555 16.5969 8.62555C16.908 8.62555 17.1626 8.37096 17.1626 8.0598V7.52517C17.1626 6.57189 16.3875 5.79681 15.4343 5.79681H9.27328C8.31999 5.79681 7.54492 6.57189 7.54492 7.52517V20.4779C7.54492 21.4284 8.31999 22.2035 9.27328 22.2035H15.4371C16.3904 22.2035 17.1654 21.4284 17.1654 20.4751V19.0919H19.6858C20.5373 19.0919 21.2445 18.4695 21.3831 17.6549C22.1949 17.5304 22.8201 16.8289 22.8201 15.9803C22.8201 15.1401 22.2063 14.4443 21.4057 14.3085ZM16.5969 11.7372C17.123 11.7372 17.5615 12.0992 17.6888 12.5858H15.505C15.6323 12.0992 16.0707 11.7372 16.5969 11.7372ZM11.5051 15.9803C11.5051 15.7709 11.6211 15.5899 11.788 15.4937V16.4668C11.6211 16.3706 11.5051 16.1896 11.5051 15.9803ZM20.2742 17.3692C20.2742 17.6945 20.0083 17.9604 19.683 17.9604H13.5107C13.1854 17.9604 12.9195 17.6945 12.9195 17.3692V14.3085C12.9195 13.9832 13.1854 13.7173 13.5107 13.7173H19.683C20.0083 13.7173 20.2742 13.9832 20.2742 14.3085V17.3692ZM21.4057 16.4668V15.4937C21.5726 15.5927 21.6886 15.7709 21.6886 15.9803C21.6886 16.1896 21.5726 16.3706 21.4057 16.4668Z" fill="#5C755E"/>
<path d="M17.1625 16.2631H16.0311C15.7199 16.2631 15.4653 16.5177 15.4653 16.8288C15.4653 17.14 15.7199 17.3946 16.0311 17.3946H17.1625C17.4737 17.3946 17.7283 17.14 17.7283 16.8288C17.7283 16.5177 17.4737 16.2631 17.1625 16.2631ZM14.3338 14.5659C14.0227 14.5659 13.7681 14.8204 13.7681 15.1316V15.6974C13.7681 16.0085 14.0227 16.2631 14.3338 16.2631C14.645 16.2631 14.8996 16.0085 14.8996 15.6974V15.1316C14.8996 14.8204 14.645 14.5659 14.3338 14.5659ZM18.8598 14.5659C18.5486 14.5659 18.294 14.8204 18.294 15.1316V15.6974C18.294 16.0085 18.5486 16.2631 18.8598 16.2631C19.1709 16.2631 19.4255 16.0085 19.4255 15.6974V15.1316C19.4255 14.8204 19.1709 14.5659 18.8598 14.5659Z" fill="#5C755E"/>
</svg>
