<svg width="28" height="30" viewBox="0 0 28 30" fill="none" xmlns="http://www.w3.org/2000/svg">
<path d="M14.6314 29.75C15.6877 29.0781 16.7471 28.4094 17.8033 27.7375C18.2814 27.4344 18.7658 27.1344 19.2314 26.8094C20.3377 26.0375 21.3752 25.1594 22.2971 24.1719C24.1221 22.2125 25.5096 19.8906 26.3877 17.3625C27.1033 15.2969 27.4096 13.1188 27.4096 10.9375V6.77814C27.4096 6.21876 27.0189 5.73126 26.4908 5.57189C26.1096 5.45626 25.7314 5.33751 25.3658 5.18439C25.4658 5.22501 25.5658 5.26876 25.6658 5.30939C25.0127 5.03126 24.4002 4.67501 23.8377 4.24376L24.0908 4.44064C23.5346 4.00939 23.0346 3.51251 22.6033 2.95626L22.8002 3.20939C22.3689 2.64689 22.0096 2.03126 21.7314 1.37814C21.7721 1.47814 21.8158 1.57814 21.8564 1.67814C21.7627 1.45314 21.6752 1.22189 21.6002 0.990636C21.4314 0.462511 20.9596 0.0718859 20.3939 0.0718859H9.17832C8.66269 0.0718859 8.14395 0.0562609 7.62832 0.0718859H7.60644C7.03769 0.0718859 6.56894 0.462511 6.40019 0.990636C6.32519 1.22501 6.24082 1.45314 6.14395 1.67814C6.18457 1.57814 6.22832 1.47814 6.26895 1.37814C5.99082 2.03126 5.63144 2.64376 5.20019 3.20939L5.39707 2.95626C4.96582 3.51251 4.46582 4.00939 3.90957 4.44064L4.16269 4.24376C3.60019 4.67501 2.98457 5.03126 2.33457 5.30939C2.43457 5.26876 2.53457 5.22501 2.63457 5.18439C2.26582 5.33751 1.89082 5.45626 1.50957 5.57189C0.981445 5.73126 0.59082 6.21876 0.59082 6.77814V10.5469C0.59082 11.2094 0.59082 11.8719 0.637695 12.5344C0.737695 13.8813 0.96582 15.225 1.34395 16.5219C2.09395 19.0969 3.39394 21.4688 5.11894 23.5156C6.45957 25.1063 8.07519 26.3938 9.82519 27.5031L13.2846 29.6969C13.3127 29.7156 13.3439 29.7344 13.3721 29.7531C13.9252 30.1031 14.7752 29.8875 15.0814 29.3031C15.4064 28.6844 15.2221 27.9688 14.6314 27.5938C14.0689 27.2375 13.5064 26.8813 12.9471 26.525C12.2283 26.0688 11.5127 25.6156 10.7939 25.1594C10.2908 24.8406 9.80019 24.5 9.32519 24.1375L9.57832 24.3344C8.39707 23.4188 7.33457 22.3563 6.41894 21.175L6.61582 21.4281C5.68457 20.2188 4.90957 18.8938 4.3127 17.4875C4.35332 17.5875 4.39707 17.6875 4.4377 17.7875C3.82832 16.3406 3.4127 14.8219 3.20332 13.2656C3.21895 13.375 3.23457 13.4875 3.24707 13.5969C3.11269 12.5844 3.09082 11.5719 3.09082 10.5563V6.79064C2.78457 7.19376 2.47832 7.59376 2.17207 7.99689C3.2502 7.67189 4.29394 7.24064 5.20957 6.58126C6.29394 5.80001 7.21895 4.83751 7.90645 3.68751C8.28457 3.05626 8.5877 2.36876 8.81269 1.66876C8.40957 1.97501 8.00957 2.28126 7.60644 2.58751H18.8221C19.3377 2.58751 19.8564 2.60001 20.3721 2.58751H20.3939C19.9908 2.28126 19.5908 1.97501 19.1877 1.66876C19.9721 4.11564 21.7533 6.24376 24.0908 7.34376C24.6533 7.60939 25.2314 7.81564 25.8283 7.99689C25.5221 7.59376 25.2158 7.19376 24.9096 6.79064V11.2219C24.9096 12.0156 24.8564 12.8094 24.7533 13.5969C24.7689 13.4875 24.7846 13.375 24.7971 13.2656C24.5846 14.8188 24.1689 16.3406 23.5627 17.7875C23.6033 17.6875 23.6471 17.5875 23.6877 17.4875C23.0908 18.8938 22.3158 20.2188 21.3846 21.4281L21.5814 21.175C20.6658 22.3563 19.6033 23.4188 18.4221 24.3344L18.6752 24.1375C17.9752 24.6781 17.2314 25.1438 16.4877 25.6188C15.6627 26.1438 14.8377 26.6656 14.0127 27.1906C13.8002 27.325 13.5846 27.4625 13.3721 27.5969C13.1002 27.7688 12.8846 28.0281 12.7971 28.3438C12.7158 28.6438 12.7533 29.0406 12.9221 29.3063C13.2783 29.8563 14.0408 30.125 14.6314 29.75Z" fill="#5C755E"/>
</svg>
