<svg width="32" height="32" viewBox="0 0 32 32" fill="none" xmlns="http://www.w3.org/2000/svg">
<path d="M16.6314 30.75C17.6877 30.0781 18.7471 29.4094 19.8033 28.7375C20.2814 28.4344 20.7658 28.1344 21.2314 27.8094C22.3377 27.0375 23.3752 26.1594 24.2971 25.1719C26.1221 23.2125 27.5096 20.8906 28.3877 18.3625C29.1033 16.2969 29.4096 14.1188 29.4096 11.9375V7.77814C29.4096 7.21876 29.0189 6.73126 28.4908 6.57189C28.1096 6.45626 27.7314 6.33751 27.3658 6.18439C27.4658 6.22501 27.5658 6.26876 27.6658 6.30939C27.0127 6.03126 26.4002 5.67501 25.8377 5.24376L26.0908 5.44064C25.5346 5.00939 25.0346 4.51251 24.6033 3.95626L24.8002 4.20939C24.3689 3.64689 24.0096 3.03126 23.7314 2.37814C23.7721 2.47814 23.8158 2.57814 23.8564 2.67814C23.7627 2.45314 23.6752 2.22189 23.6002 1.99064C23.4314 1.46251 22.9596 1.07189 22.3939 1.07189H11.1783C10.6627 1.07189 10.1439 1.05626 9.62832 1.07189H9.60644C9.03769 1.07189 8.56894 1.46251 8.40019 1.99064C8.32519 2.22501 8.24082 2.45314 8.14395 2.67814C8.18457 2.57814 8.22832 2.47814 8.26895 2.37814C7.99082 3.03126 7.63144 3.64376 7.20019 4.20939L7.39707 3.95626C6.96582 4.51251 6.46582 5.00939 5.90957 5.44064L6.16269 5.24376C5.60019 5.67501 4.98457 6.03126 4.33457 6.30939C4.43457 6.26876 4.53457 6.22501 4.63457 6.18439C4.26582 6.33751 3.89082 6.45626 3.50957 6.57189C2.98145 6.73126 2.59082 7.21876 2.59082 7.77814V11.5469C2.59082 12.2094 2.59082 12.8719 2.6377 13.5344C2.7377 14.8813 2.96582 16.225 3.34395 17.5219C4.09395 20.0969 5.39394 22.4688 7.11894 24.5156C8.45957 26.1063 10.0752 27.3938 11.8252 28.5031L15.2846 30.6969C15.3127 30.7156 15.3439 30.7344 15.3721 30.7531C15.9252 31.1031 16.7752 30.8875 17.0814 30.3031C17.4064 29.6844 17.2221 28.9688 16.6314 28.5938C16.0689 28.2375 15.5064 27.8813 14.9471 27.525C14.2283 27.0688 13.5127 26.6156 12.7939 26.1594C12.2908 25.8406 11.8002 25.5 11.3252 25.1375L11.5783 25.3344C10.3971 24.4188 9.33457 23.3563 8.41894 22.175L8.61582 22.4281C7.68457 21.2188 6.90957 19.8938 6.3127 18.4875C6.35332 18.5875 6.39707 18.6875 6.4377 18.7875C5.82832 17.3406 5.4127 15.8219 5.20332 14.2656C5.21895 14.375 5.23457 14.4875 5.24707 14.5969C5.11269 13.5844 5.09082 12.5719 5.09082 11.5563V7.79064C4.78457 8.19376 4.47832 8.59376 4.17207 8.99689C5.2502 8.67189 6.29394 8.24064 7.20957 7.58126C8.29394 6.80001 9.21895 5.83751 9.90645 4.68751C10.2846 4.05626 10.5877 3.36876 10.8127 2.66876C10.4096 2.97501 10.0096 3.28126 9.60644 3.58751H20.8221C21.3377 3.58751 21.8564 3.60001 22.3721 3.58751H22.3939C21.9908 3.28126 21.5908 2.97501 21.1877 2.66876C21.9721 5.11564 23.7533 7.24376 26.0908 8.34376C26.6533 8.60939 27.2314 8.81564 27.8283 8.99689C27.5221 8.59376 27.2158 8.19376 26.9096 7.79064V12.2219C26.9096 13.0156 26.8564 13.8094 26.7533 14.5969C26.7689 14.4875 26.7846 14.375 26.7971 14.2656C26.5846 15.8188 26.1689 17.3406 25.5627 18.7875C25.6033 18.6875 25.6471 18.5875 25.6877 18.4875C25.0908 19.8938 24.3158 21.2188 23.3846 22.4281L23.5814 22.175C22.6658 23.3563 21.6033 24.4188 20.4221 25.3344L20.6752 25.1375C19.9752 25.6781 19.2314 26.1438 18.4877 26.6188C17.6627 27.1438 16.8377 27.6656 16.0127 28.1906C15.8002 28.325 15.5846 28.4625 15.3721 28.5969C15.1002 28.7688 14.8846 29.0281 14.7971 29.3438C14.7158 29.6438 14.7533 30.0406 14.9221 30.3063C15.2783 30.8563 16.0408 31.125 16.6314 30.75Z" fill="#5C755E"/>
<path d="M9.63146 15.9342L12.8408 19.1436L13.2971 19.5998C13.7752 20.078 14.5877 20.078 15.0658 19.5998L17.544 17.1217L21.4658 13.1998L22.369 12.2967C22.8315 11.8342 22.8658 10.9842 22.369 10.5279C21.869 10.0686 21.094 10.0342 20.6002 10.5279L18.1221 13.0061L14.2002 16.9279L13.2971 17.8311H15.0658L11.8565 14.6217L11.4002 14.1654C10.9377 13.7029 10.0877 13.6686 9.63146 14.1654C9.17209 14.6654 9.13771 15.4373 9.63146 15.9342Z" fill="#5C755E"/>
</svg>
