<svg width="24" height="22" viewBox="0 0 24 22" fill="none" xmlns="http://www.w3.org/2000/svg">
<path d="M22.9752 9.80181L21.1006 8.07001L21.0964 8.06581L14.3764 1.85401C13.7278 1.25979 12.8802 0.930176 12.0006 0.930176C11.121 0.930176 10.2733 1.25979 9.62478 1.85401L2.90478 8.06581L2.89778 8.07141L1.02598 9.80181C0.954275 9.86298 0.895659 9.938 0.85365 10.0224C0.81164 10.1067 0.787102 10.1987 0.781508 10.2928C0.775913 10.3869 0.789377 10.4812 0.821092 10.5699C0.852806 10.6587 0.902119 10.7401 0.966072 10.8093C1.03003 10.8786 1.1073 10.9342 1.19327 10.9728C1.27924 11.0115 1.37212 11.0324 1.46635 11.0342C1.56059 11.0361 1.65423 11.0189 1.74167 10.9837C1.8291 10.9485 1.90853 10.8961 1.97518 10.8294L2.69618 10.1644V17.5704C2.69729 18.4983 3.0664 19.3879 3.72254 20.0441C4.37867 20.7002 5.26827 21.0693 6.19618 21.0704H17.8064C18.7343 21.0693 19.6239 20.7002 20.28 20.0441C20.9362 19.3879 21.3053 18.4983 21.3064 17.5704V10.1644L22.026 10.8294C22.0926 10.8961 22.1721 10.9485 22.2595 10.9837C22.3469 11.0189 22.4406 11.0361 22.5348 11.0342C22.629 11.0324 22.7219 11.0115 22.8079 10.9728C22.8939 10.9342 22.9711 10.8786 23.0351 10.8093C23.099 10.7401 23.1484 10.6587 23.1801 10.5699C23.2118 10.4812 23.2253 10.3869 23.2197 10.2928C23.2141 10.1987 23.1895 10.1067 23.1475 10.0224C23.1055 9.938 23.0469 9.86298 22.9752 9.80181ZM19.905 17.569C19.9042 18.1257 19.6828 18.6595 19.2891 19.0531C18.8954 19.4468 18.3617 19.6683 17.805 19.669H6.19478C5.63806 19.6683 5.10434 19.4468 4.71068 19.0531C4.31701 18.6595 4.09552 18.1257 4.09478 17.569V8.87221L10.5768 2.88441C10.966 2.52828 11.4744 2.33077 12.002 2.33077C12.5295 2.33077 13.038 2.52828 13.4272 2.88441L19.905 8.87081V17.569ZM16.419 11.1304C16.4924 11.1879 16.5536 11.2595 16.599 11.341C16.6444 11.4224 16.673 11.5122 16.6832 11.6049C16.6935 11.6976 16.6851 11.7914 16.6585 11.8808C16.632 11.9702 16.5878 12.0534 16.5287 12.1255C16.4696 12.1976 16.3966 12.2572 16.3141 12.3007C16.2316 12.3442 16.1413 12.3708 16.0484 12.3789C15.9555 12.387 15.8619 12.3765 15.7731 12.348C15.6843 12.3194 15.6021 12.2734 15.5314 12.2126C14.5222 11.4254 13.279 10.9979 11.9992 10.9979C10.7193 10.9979 9.47613 11.4254 8.46698 12.2126C8.39653 12.2755 8.31409 12.3234 8.22462 12.3536C8.13515 12.3837 8.04051 12.3955 7.94638 12.3881C7.85226 12.3807 7.7606 12.3544 7.67691 12.3107C7.59323 12.267 7.51925 12.2068 7.45944 12.1337C7.39962 12.0607 7.3552 11.9763 7.32885 11.8856C7.30249 11.795 7.29475 11.6999 7.30609 11.6062C7.31742 11.5125 7.3476 11.422 7.39481 11.3402C7.44202 11.2585 7.50528 11.1871 7.58078 11.1304C8.84259 10.1445 10.3979 9.60896 11.9992 9.60896C13.6005 9.60896 15.1558 10.1445 16.4176 11.1304H16.419ZM14.6606 13.3186C14.803 13.4378 14.8922 13.6087 14.9086 13.7936C14.925 13.9786 14.8673 14.1625 14.7481 14.3049C14.6289 14.4473 14.458 14.5365 14.2731 14.5529C14.0881 14.5693 13.9042 14.5116 13.7618 14.3924C13.2629 13.9889 12.6408 13.7688 11.9992 13.7688C11.3576 13.7688 10.7354 13.9889 10.2366 14.3924C10.1661 14.4514 10.0846 14.496 9.99691 14.5235C9.90919 14.5511 9.8169 14.5611 9.72531 14.5529C9.63372 14.5448 9.54463 14.5187 9.46313 14.4762C9.38162 14.4336 9.3093 14.3754 9.25028 14.3049C9.19127 14.2344 9.14672 14.153 9.11917 14.0652C9.09163 13.9775 9.08164 13.8852 9.08976 13.7936C9.09789 13.7021 9.12397 13.613 9.16653 13.5315C9.20908 13.45 9.26728 13.3776 9.33778 13.3186C10.0941 12.7164 11.0324 12.3885 11.9992 12.3885C12.966 12.3885 13.9042 12.7164 14.6606 13.3186ZM12.8616 16.0136C12.8616 16.1842 12.811 16.3509 12.7162 16.4927C12.6215 16.6346 12.4868 16.7451 12.3292 16.8104C12.1716 16.8756 11.9982 16.8927 11.8309 16.8594C11.6636 16.8262 11.51 16.744 11.3894 16.6234C11.2688 16.5028 11.1866 16.3491 11.1534 16.1819C11.1201 16.0146 11.1372 15.8412 11.2024 15.6836C11.2677 15.526 11.3782 15.3913 11.5201 15.2966C11.6619 15.2018 11.8286 15.1512 11.9992 15.1512C12.2279 15.1512 12.4473 15.2421 12.609 15.4038C12.7707 15.5655 12.8616 15.7849 12.8616 16.0136Z" fill="white"/>
</svg>
