<svg width="408" height="88" viewBox="0 0 408 88" fill="none" xmlns="http://www.w3.org/2000/svg">
<path d="M401.461 87.4933L395.687 77.4933H407.234L401.461 87.4933ZM21.79 42.7466H381.461V44.7466H21.79V42.7466ZM402.461 63.7466V78.4933H400.461V63.7466H402.461ZM0.790039 23.7466L0.790039 0L2.79004 0V23.7466H0.790039ZM381.461 42.7466C393.059 42.7466 402.461 52.1486 402.461 63.7466H400.461C400.461 53.2532 391.954 44.7466 381.461 44.7466V42.7466ZM21.79 44.7466C10.1921 44.7466 0.790039 35.3446 0.790039 23.7466H2.79004C2.79004 34.24 11.2966 42.7466 21.79 42.7466V44.7466Z" fill="#E2E2E2"/>
<g filter="url(#filter0_d_2013_64)">
<circle cx="202.5" cy="42.3982" r="11.5" fill="#5C755E"/>
<circle cx="202.5" cy="42.3982" r="9.5" stroke="white" stroke-width="4"/>
</g>
<defs>
<filter id="filter0_d_2013_64" x="187" y="30.8982" width="31" height="31" filterUnits="userSpaceOnUse" color-interpolation-filters="sRGB">
<feFlood flood-opacity="0" result="BackgroundImageFix"/>
<feColorMatrix in="SourceAlpha" type="matrix" values="0 0 0 0 0 0 0 0 0 0 0 0 0 0 0 0 0 0 127 0" result="hardAlpha"/>
<feOffset dy="4"/>
<feGaussianBlur stdDeviation="2"/>
<feComposite in2="hardAlpha" operator="out"/>
<feColorMatrix type="matrix" values="0 0 0 0 0 0 0 0 0 0 0 0 0 0 0 0 0 0 0.25 0"/>
<feBlend mode="normal" in2="BackgroundImageFix" result="effect1_dropShadow_2013_64"/>
<feBlend mode="normal" in="SourceGraphic" in2="effect1_dropShadow_2013_64" result="shape"/>
</filter>
</defs>
</svg>
