<svg width="34" height="34" viewBox="0 0 34 34" fill="none" xmlns="http://www.w3.org/2000/svg">
<g clip-path="url(#clip0_55_284)">
<mask id="mask0_55_284" style="mask-type:luminance" maskUnits="userSpaceOnUse" x="0" y="0" width="34" height="34">
<path d="M0 0H34V34H0V0Z" fill="white"/>
</mask>
<g mask="url(#mask0_55_284)">
<path d="M3.2683 32.2106C1.6202 32.2106 0.893673 31.0134 1.65241 29.5505L15.6184 2.6592C16.3771 1.19631 17.6208 1.19631 18.3804 2.6592L32.3464 29.5505C33.1069 31.0134 32.3795 32.2106 30.7305 32.2106H3.2683Z" fill="#FFCC4D"/>
<path d="M15.0037 10.4327C15.0037 9.26774 15.8636 8.54658 17.0008 8.54658C18.1112 8.54658 18.9987 9.29548 18.9987 10.4327V21.1141C18.9987 22.2513 18.1112 23.0002 17.0008 23.0002C15.8636 23.0002 15.0037 22.2781 15.0037 21.1141V10.4327ZM14.8364 26.8001C14.8374 26.2265 15.0657 25.6766 15.4715 25.271C15.8772 24.8655 16.4271 24.6373 17.0008 24.6366C17.5744 24.6373 18.1244 24.8655 18.5301 25.271C18.9359 25.6766 19.1642 26.2265 19.1652 26.8001C19.1645 27.3739 18.9362 27.924 18.5304 28.3298C18.1247 28.7355 17.5746 28.9638 17.0008 28.9645C16.427 28.9638 15.8769 28.7355 15.4711 28.3298C15.0654 27.924 14.8371 27.3739 14.8364 26.8001Z" fill="#231F20"/>
</g>
</g>
<defs>
<clipPath id="clip0_55_284">
<rect width="34" height="34" fill="white"/>
</clipPath>
</defs>
</svg>
