<svg width="34" height="34" viewBox="0 0 34 34" fill="none" xmlns="http://www.w3.org/2000/svg">
<path d="M9.56299 15.9375H15.938C16.2198 15.9375 16.49 15.8256 16.6893 15.6263C16.8885 15.427 17.0005 15.1568 17.0005 14.875C17.0005 14.5932 16.8885 14.323 16.6893 14.1237C16.49 13.9244 16.2198 13.8125 15.938 13.8125H9.56299C9.2812 13.8125 9.01094 13.9244 8.81169 14.1237C8.61243 14.323 8.50049 14.5932 8.50049 14.875C8.50049 15.1568 8.61243 15.427 8.81169 15.6263C9.01094 15.8256 9.2812 15.9375 9.56299 15.9375ZM9.56299 11.6875H15.938C16.2198 11.6875 16.49 11.5756 16.6893 11.3763C16.8885 11.177 17.0005 10.9068 17.0005 10.625C17.0005 10.3432 16.8885 10.073 16.6893 9.8737C16.49 9.67444 16.2198 9.5625 15.938 9.5625H9.56299C9.2812 9.5625 9.01094 9.67444 8.81169 9.8737C8.61243 10.073 8.50049 10.3432 8.50049 10.625C8.50049 10.9068 8.61243 11.177 8.81169 11.3763C9.01094 11.5756 9.2812 11.6875 9.56299 11.6875ZM24.438 22.3125C24.1562 22.3125 23.8859 22.4244 23.6867 22.6237C23.4874 22.823 23.3755 23.0932 23.3755 23.375V25.5C23.3755 25.7818 23.4874 26.052 23.6867 26.2513C23.8859 26.4506 24.1562 26.5625 24.438 26.5625C24.7198 26.5625 24.99 26.4506 25.1893 26.2513C25.3885 26.052 25.5005 25.7818 25.5005 25.5V23.375C25.5005 23.0932 25.3885 22.823 25.1893 22.6237C24.99 22.4244 24.7198 22.3125 24.438 22.3125ZM24.438 15.9375C24.1562 15.9375 23.8859 16.0494 23.6867 16.2487C23.4874 16.448 23.3755 16.7182 23.3755 17V19.125C23.3755 19.4068 23.4874 19.677 23.6867 19.8763C23.8859 20.0756 24.1562 20.1875 24.438 20.1875C24.7198 20.1875 24.99 20.0756 25.1893 19.8763C25.3885 19.677 25.5005 19.4068 25.5005 19.125V17C25.5005 16.7182 25.3885 16.448 25.1893 16.2487C24.99 16.0494 24.7198 15.9375 24.438 15.9375Z" fill="white" stroke="#5C755E" stroke-width="0.3"/>
<path d="M30.813 29.75H29.7505V13.8125C29.7505 12.9671 29.4147 12.1564 28.8169 11.5586C28.2191 10.9608 27.4084 10.625 26.563 10.625H21.2505V7.4375C21.2505 6.59212 20.9147 5.78137 20.3169 5.1836C19.7191 4.58582 18.9084 4.25 18.063 4.25H13.813V3.1875C13.813 2.90571 13.701 2.63546 13.5018 2.4362C13.3025 2.23694 13.0323 2.125 12.7505 2.125C12.4687 2.125 12.1984 2.23694 11.9992 2.4362C11.7999 2.63546 11.688 2.90571 11.688 3.1875V4.25H7.43799C6.59261 4.25 5.78186 4.58582 5.18409 5.1836C4.58631 5.78137 4.25049 6.59212 4.25049 7.4375V29.75H3.18799C2.9062 29.75 2.63594 29.8619 2.43669 30.0612C2.23743 30.2605 2.12549 30.5307 2.12549 30.8125C2.12549 31.0943 2.23743 31.3645 2.43669 31.5638C2.63594 31.7631 2.9062 31.875 3.18799 31.875H30.813C31.0948 31.875 31.365 31.7631 31.5643 31.5638C31.7635 31.3645 31.8755 31.0943 31.8755 30.8125C31.8755 30.5307 31.7635 30.2605 31.5643 30.0612C31.365 29.8619 31.0948 29.75 30.813 29.75ZM6.37549 7.4375C6.37549 7.15571 6.48743 6.88546 6.68669 6.6862C6.88594 6.48694 7.1562 6.375 7.43799 6.375H18.063C18.3448 6.375 18.615 6.48694 18.8143 6.6862C19.0135 6.88546 19.1255 7.15571 19.1255 7.4375V29.75H17.0005V21.25C17.0005 20.6864 16.7766 20.1459 16.3781 19.7474C15.9796 19.3489 15.4391 19.125 14.8755 19.125H10.6255C10.0619 19.125 9.5214 19.3489 9.12289 19.7474C8.72437 20.1459 8.50049 20.6864 8.50049 21.25V29.75H6.37549V7.4375ZM10.6255 29.75V21.25H14.8755V29.75H10.6255ZM21.2505 29.75V12.75H26.563C26.8448 12.75 27.115 12.8619 27.3143 13.0612C27.5135 13.2605 27.6255 13.5307 27.6255 13.8125V29.75H21.2505Z" fill="white" stroke="#5C755E" stroke-width="0.3"/>
</svg>
