<svg width="32" height="32" viewBox="0 0 32 32" fill="none" xmlns="http://www.w3.org/2000/svg">
<path d="M28.345 3.953C26.603 2.048 24.28 1 21.803 1C19.662 1 17.635 1.784 16 3.227C14.365 1.784 12.338 1 10.197 1C7.72 1 5.397 2.048 3.655 3.953C0.115 7.823 0.115 14.119 3.655 17.989L15.261 30.676C15.451 30.882 15.719 31 16 31C16.281 31 16.549 30.882 16.739 30.675L28.345 17.988C31.885 14.119 31.885 7.823 28.345 3.953ZM26.867 16.639L16 28.518L5.132 16.639C2.273 13.514 2.273 8.428 5.132 5.303C6.491 3.817 8.289 3 10.197 3C12.105 3 13.903 3.817 15.261 5.302C15.64 5.716 16.359 5.716 16.739 5.302C18.097 3.817 19.895 3 21.803 3C23.711 3 25.51 3.817 26.868 5.302C29.727 8.428 29.727 13.514 26.867 16.639Z" fill="white"/>
<path d="M24 13H21.5L18.8 9.4C18.592 9.123 18.259 8.974 17.91 9.004C17.565 9.035 17.261 9.243 17.105 9.553L13.829 16.106L11.8 13.4C11.611 13.148 11.315 13 11 13H8C7.448 13 7 13.448 7 14C7 14.552 7.448 15 8 15H10.5L13.2 18.6C13.39 18.853 13.687 19 14 19C14.03 19 14.06 18.999 14.09 18.996C14.435 18.965 14.739 18.757 14.895 18.447L18.171 11.894L20.2 14.6C20.388 14.852 20.685 15 21 15H24C24.552 15 25 14.552 25 14C25 13.448 24.552 13 24 13Z" fill="white"/>
</svg>
