<svg width="24" height="24" viewBox="0 0 24 24" fill="none" xmlns="http://www.w3.org/2000/svg">
<path d="M12.0005 13C11.696 12.9964 11.3978 13.0862 11.1459 13.2573C10.8941 13.4284 10.7006 13.6725 10.5917 13.9568C10.4828 14.2411 10.4636 14.552 10.5366 14.8476C10.6097 15.1431 10.7716 15.4092 11.0005 15.61V17C11.0005 17.2652 11.1058 17.5196 11.2934 17.7071C11.4809 17.8946 11.7353 18 12.0005 18C12.2657 18 12.5201 17.8946 12.7076 17.7071C12.8951 17.5196 13.0005 17.2652 13.0005 17V15.61C13.2294 15.4092 13.3913 15.1431 13.4643 14.8476C13.5374 14.552 13.5182 14.2411 13.4093 13.9568C13.3003 13.6725 13.1069 13.4284 12.855 13.2573C12.6032 13.0862 12.3049 12.9964 12.0005 13ZM17.0005 9V7C17.0005 5.67392 16.4737 4.40215 15.536 3.46447C14.5983 2.52678 13.3266 2 12.0005 2C10.6744 2 9.40264 2.52678 8.46495 3.46447C7.52727 4.40215 7.00049 5.67392 7.00049 7V9C6.20484 9 5.44178 9.31607 4.87917 9.87868C4.31656 10.4413 4.00049 11.2043 4.00049 12V19C4.00049 19.7956 4.31656 20.5587 4.87917 21.1213C5.44178 21.6839 6.20484 22 7.00049 22H17.0005C17.7961 22 18.5592 21.6839 19.1218 21.1213C19.6844 20.5587 20.0005 19.7956 20.0005 19V12C20.0005 11.2043 19.6844 10.4413 19.1218 9.87868C18.5592 9.31607 17.7961 9 17.0005 9ZM9.00049 7C9.00049 6.20435 9.31656 5.44129 9.87917 4.87868C10.4418 4.31607 11.2048 4 12.0005 4C12.7961 4 13.5592 4.31607 14.1218 4.87868C14.6844 5.44129 15.0005 6.20435 15.0005 7V9H9.00049V7ZM18.0005 19C18.0005 19.2652 17.8951 19.5196 17.7076 19.7071C17.5201 19.8946 17.2657 20 17.0005 20H7.00049C6.73527 20 6.48092 19.8946 6.29338 19.7071C6.10585 19.5196 6.00049 19.2652 6.00049 19V12C6.00049 11.7348 6.10585 11.4804 6.29338 11.2929C6.48092 11.1054 6.73527 11 7.00049 11H17.0005C17.2657 11 17.5201 11.1054 17.7076 11.2929C17.8951 11.4804 18.0005 11.7348 18.0005 12V19Z" fill="white"/>
</svg>
