<svg width="30" height="30" viewBox="0 0 30 30" fill="none" xmlns="http://www.w3.org/2000/svg">
<path d="M15.5923 28.8281C16.5825 28.1983 17.5757 27.5713 18.5659 26.9414C19.0142 26.6572 19.4683 26.376 19.9048 26.0713C20.9419 25.3477 21.9146 24.5244 22.7788 23.5986C24.4897 21.7617 25.7905 19.585 26.6138 17.2149C27.2847 15.2783 27.5718 13.2363 27.5718 11.1914V7.292C27.5718 6.76759 27.2056 6.31056 26.7104 6.16114C26.353 6.05274 25.9985 5.94142 25.6558 5.79786C25.7495 5.83595 25.8433 5.87696 25.937 5.91505C25.3247 5.65431 24.7505 5.32032 24.2231 4.91603L24.4604 5.1006C23.939 4.6963 23.4702 4.23048 23.0659 3.70899L23.2505 3.9463C22.8462 3.41896 22.5093 2.84181 22.2485 2.2295C22.2866 2.32325 22.3276 2.417 22.3657 2.51075C22.2778 2.29981 22.1958 2.08302 22.1255 1.86622C21.9673 1.3711 21.5249 1.00489 20.9946 1.00489H10.48C9.99658 1.00489 9.51025 0.990245 9.02686 1.00489H9.00635C8.47314 1.00489 8.03369 1.3711 7.87549 1.86622C7.80518 2.08595 7.72607 2.29981 7.63525 2.51075C7.67334 2.417 7.71436 2.32325 7.75244 2.2295C7.4917 2.84181 7.15479 3.41603 6.75049 3.9463L6.93506 3.70899C6.53076 4.23048 6.06201 4.6963 5.54053 5.1006L5.77783 4.91603C5.25049 5.32032 4.67334 5.65431 4.06396 5.91505C4.15771 5.87696 4.25146 5.83595 4.34521 5.79786C3.99951 5.94142 3.64795 6.05274 3.29053 6.16114C2.79541 6.31056 2.4292 6.76759 2.4292 7.292V10.8252C2.4292 11.4463 2.4292 12.0674 2.47314 12.6885C2.56689 13.9512 2.78076 15.2109 3.13525 16.4268C3.83838 18.8408 5.05713 21.0645 6.67432 22.9834C7.93115 24.4746 9.4458 25.6817 11.0864 26.7217L14.3296 28.7783C14.356 28.7959 14.3853 28.8135 14.4116 28.8311C14.9302 29.1592 15.727 28.957 16.0142 28.4092C16.3188 27.8291 16.146 27.1582 15.5923 26.8067C15.0649 26.4727 14.5376 26.1387 14.0132 25.8047C13.3394 25.377 12.6685 24.9522 11.9946 24.5244C11.5229 24.2256 11.063 23.9063 10.6177 23.5664L10.855 23.751C9.74756 22.8926 8.75146 21.8965 7.89307 20.7891L8.07764 21.0264C7.20459 19.8926 6.47803 18.6504 5.91846 17.332C5.95654 17.4258 5.99756 17.5195 6.03564 17.6133C5.46436 16.2568 5.07471 14.833 4.87842 13.374C4.89307 13.4766 4.90771 13.582 4.91943 13.6846C4.79346 12.7354 4.77295 11.7861 4.77295 10.834V7.30372C4.48584 7.68165 4.19873 8.05665 3.91162 8.43458C4.92236 8.12989 5.90088 7.7256 6.75928 7.10743C7.77588 6.37501 8.64307 5.47267 9.2876 4.39454C9.64209 3.80274 9.92627 3.15821 10.1372 2.50196C9.75928 2.78907 9.38428 3.07618 9.00635 3.36329H19.521C20.0044 3.36329 20.4907 3.37501 20.9741 3.36329H20.9946C20.6167 3.07618 20.2417 2.78907 19.8638 2.50196C20.5991 4.79591 22.269 6.79103 24.4604 7.82228C24.9878 8.0713 25.5298 8.26466 26.0894 8.43458C25.8022 8.05665 25.5151 7.68165 25.228 7.30372V11.458C25.228 12.2022 25.1782 12.9463 25.0815 13.6846C25.0962 13.582 25.1108 13.4766 25.1226 13.374C24.9233 14.8301 24.5337 16.2568 23.9653 17.6133C24.0034 17.5195 24.0444 17.4258 24.0825 17.332C23.5229 18.6504 22.7964 19.8926 21.9233 21.0264L22.1079 20.7891C21.2495 21.8965 20.2534 22.8926 19.146 23.751L19.3833 23.5664C18.727 24.0733 18.0298 24.5098 17.3325 24.9551C16.5591 25.4473 15.7856 25.9365 15.0122 26.4287C14.813 26.5547 14.6108 26.6836 14.4116 26.8096C14.1567 26.9707 13.9546 27.2139 13.8726 27.5098C13.7964 27.791 13.8315 28.1631 13.9897 28.4121C14.3237 28.9277 15.0386 29.1797 15.5923 28.8281Z" fill="white"/>
<path d="M9.03002 14.9385L12.0388 17.9473L12.4665 18.375C12.9148 18.8232 13.6765 18.8232 14.1247 18.375L16.448 16.0517L20.1247 12.375L20.9714 11.5283C21.405 11.0947 21.4372 10.2978 20.9714 9.8701C20.5027 9.43944 19.7761 9.40721 19.3132 9.8701L16.99 12.1933L13.3132 15.8701L12.4665 16.7168H14.1247L11.116 13.708L10.6882 13.2803C10.2546 12.8467 9.45775 12.8144 9.03002 13.2803C8.59935 13.749 8.56713 14.4726 9.03002 14.9385Z" fill="white"/>
</svg>
