<svg width="24" height="24" viewBox="0 0 24 24" fill="none" xmlns="http://www.w3.org/2000/svg">
<path d="M12.4738 23.0624C13.266 22.5585 14.0605 22.0569 14.8527 21.553C15.2113 21.3257 15.5746 21.1007 15.9238 20.8569C16.7535 20.278 17.5316 19.6194 18.223 18.8788C19.5918 17.4093 20.6324 15.6679 21.291 13.7718C21.8277 12.2225 22.0574 10.5889 22.0574 8.95301V5.83348C22.0574 5.41395 21.7645 5.04832 21.3684 4.92879C21.0824 4.84207 20.7988 4.75301 20.5246 4.63817C20.5996 4.66864 20.6746 4.70145 20.7496 4.73192C20.2598 4.52332 19.8004 4.25614 19.3785 3.9327L19.5684 4.08035C19.1512 3.75692 18.7762 3.38426 18.4527 2.96707L18.6004 3.15692C18.277 2.73504 18.0074 2.27332 17.7988 1.78348C17.8293 1.85848 17.8621 1.93348 17.8926 2.00848C17.8223 1.83973 17.7566 1.66629 17.7004 1.49285C17.5738 1.09676 17.2199 0.803792 16.7957 0.803792H8.38398C7.99727 0.803792 7.6082 0.792074 7.22148 0.803792H7.20508C6.77852 0.803792 6.42695 1.09676 6.30039 1.49285C6.24414 1.66864 6.18086 1.83973 6.1082 2.00848C6.13867 1.93348 6.17148 1.85848 6.20195 1.78348C5.99336 2.27332 5.72383 2.7327 5.40039 3.15692L5.54805 2.96707C5.22461 3.38426 4.84961 3.75692 4.43242 4.08035L4.62227 3.9327C4.20039 4.25614 3.73867 4.52332 3.25117 4.73192C3.32617 4.70145 3.40117 4.66864 3.47617 4.63817C3.19961 4.75301 2.91836 4.84207 2.63242 4.92879C2.23633 5.04832 1.94336 5.41395 1.94336 5.83348V8.66004C1.94336 9.15692 1.94336 9.65379 1.97852 10.1507C2.05352 11.1608 2.22461 12.1686 2.5082 13.1413C3.0707 15.0725 4.0457 16.8514 5.33945 18.3866C6.34492 19.5796 7.55664 20.5452 8.86914 21.3772L11.4637 23.0225C11.4848 23.0366 11.5082 23.0507 11.5293 23.0647C11.9441 23.3272 12.5816 23.1655 12.8113 22.7272C13.0551 22.2632 12.9168 21.7264 12.4738 21.4452C12.052 21.178 11.6301 20.9108 11.2105 20.6436C10.6715 20.3014 10.1348 19.9616 9.5957 19.6194C9.21836 19.3804 8.85039 19.1249 8.49414 18.853L8.68398 19.0007C7.79805 18.3139 7.00117 17.5171 6.31445 16.6311L6.46211 16.821C5.76367 15.9139 5.18242 14.9202 4.73477 13.8655C4.76523 13.9405 4.79805 14.0155 4.82852 14.0905C4.37148 13.0054 4.05977 11.8663 3.90273 10.6991C3.91445 10.7811 3.92617 10.8655 3.93555 10.9475C3.83477 10.1882 3.81836 9.42879 3.81836 8.66707V5.84285C3.58867 6.1452 3.35898 6.4452 3.1293 6.74754C3.93789 6.50379 4.7207 6.18035 5.40742 5.68582C6.2207 5.09989 6.91445 4.37801 7.43008 3.51551C7.71367 3.04207 7.94102 2.52645 8.10977 2.00145C7.80742 2.23114 7.50742 2.46082 7.20508 2.69051H15.6168C16.0035 2.69051 16.3926 2.69989 16.7793 2.69051H16.7957C16.4934 2.46082 16.1934 2.23114 15.891 2.00145C16.4793 3.8366 17.8152 5.4327 19.5684 6.2577C19.9902 6.45692 20.4238 6.6116 20.8715 6.74754C20.6418 6.4452 20.4121 6.1452 20.1824 5.84285V9.16629C20.1824 9.7616 20.1426 10.3569 20.0652 10.9475C20.077 10.8655 20.0887 10.7811 20.098 10.6991C19.9387 11.8639 19.627 13.0054 19.1723 14.0905C19.2027 14.0155 19.2355 13.9405 19.266 13.8655C18.8184 14.9202 18.2371 15.9139 17.5387 16.821L17.6863 16.6311C16.9996 17.5171 16.2027 18.3139 15.3168 19.0007L15.5066 18.853C14.9816 19.2585 14.4238 19.6077 13.866 19.9639C13.2473 20.3577 12.6285 20.7491 12.0098 21.1429C11.8504 21.2436 11.6887 21.3468 11.5293 21.4475C11.3254 21.5764 11.1637 21.771 11.098 22.0077C11.0371 22.2327 11.0652 22.5304 11.1918 22.7296C11.459 23.1421 12.0309 23.3436 12.4738 23.0624Z" fill="white"/>
<path d="M7.22372 11.9508L9.63075 14.3578L9.97294 14.7C10.3315 15.0586 10.9409 15.0586 11.2995 14.7L13.1581 12.8414L16.0995 9.89999L16.7768 9.22265C17.1237 8.87577 17.1495 8.23827 16.7768 7.89608C16.4018 7.55155 15.8206 7.52577 15.4503 7.89608L13.5917 9.75468L10.6503 12.6961L9.97294 13.3734H11.2995L8.89247 10.9664L8.55028 10.6242C8.20341 10.2773 7.56591 10.2516 7.22372 10.6242C6.87919 10.9992 6.85341 11.5781 7.22372 11.9508Z" fill="white"/>
</svg>
